<svg xmlns="http://www.w3.org/2000/svg" xmlns:xlink="http://www.w3.org/1999/xlink" version="1.1" class="marks" width="756" height="437" viewBox="0 0 756 437"><g fill="none" stroke-miterlimit="10" transform="translate(70,5)"><g class="mark-group role-frame root" role="graphics-object" aria-roledescription="group mark container"><g transform="translate(0,0)"><path class="background" aria-hidden="true" d="M0,0h680v410h-680Z"/><g><g class="mark-group role-axis" role="graphics-symbol" aria-roledescription="axis" aria-label="X-axis for a linear scale with values from 0 to 30"><g transform="translate(0.5,410.5)"><path class="background" aria-hidden="true" d="M0,0h0v0h0Z" pointer-events="none"/><g><g class="mark-rule role-axis-tick" pointer-events="none"><line transform="translate(0,0)" x2="0" y2="5" stroke="#888" stroke-width="1" opacity="1"/><line transform="translate(45,0)" x2="0" y2="5" stroke="#888" stroke-width="1" opacity="1"/><line transform="translate(91,0)" x2="0" y2="5" stroke="#888" stroke-width="1" opacity="1"/><line transform="translate(136,0)" x2="0" y2="5" stroke="#888" stroke-width="1" opacity="1"/><line transform="translate(181,0)" x2="0" y2="5" stroke="#888" stroke-width="1" opacity="1"/><line transform="translate(227,0)" x2="0" y2="5" stroke="#888" stroke-width="1" opacity="1"/><line transform="translate(272,0)" x2="0" y2="5" stroke="#888" stroke-width="1" opacity="1"/><line transform="translate(317,0)" x2="0" y2="5" stroke="#888" stroke-width="1" opacity="1"/><line transform="translate(363,0)" x2="0" y2="5" stroke="#888" stroke-width="1" opacity="1"/><line transform="translate(408,0)" x2="0" y2="5" stroke="#888" stroke-width="1" opacity="1"/><line transform="translate(453,0)" x2="0" y2="5" stroke="#888" stroke-width="1" opacity="1"/><line transform="translate(499,0)" x2="0" y2="5" stroke="#888" stroke-width="1" opacity="1"/><line transform="translate(544,0)" x2="0" y2="5" stroke="#888" stroke-width="1" opacity="1"/><line transform="translate(589,0)" x2="0" y2="5" stroke="#888" stroke-width="1" opacity="1"/><line transform="translate(635,0)" x2="0" y2="5" stroke="#888" stroke-width="1" opacity="1"/><line transform="translate(680,0)" x2="0" y2="5" stroke="#888" stroke-width="1" opacity="1"/></g><g class="mark-text role-axis-label" pointer-events="none"><text text-anchor="start" transform="translate(0,15)" font-family="sans-serif" font-size="10px" fill="#000" opacity="1">0</text><text text-anchor="middle" transform="translate(45.333333333333336,15)" font-family="sans-serif" font-size="10px" fill="#000" opacity="1">2</text><text text-anchor="middle" transform="translate(90.66666666666667,15)" font-family="sans-serif" font-size="10px" fill="#000" opacity="1">4</text><text text-anchor="middle" transform="translate(136,15)" font-family="sans-serif" font-size="10px" fill="#000" opacity="1">6</text><text text-anchor="middle" transform="translate(181.33333333333334,15)" font-family="sans-serif" font-size="10px" fill="#000" opacity="1">8</text><text text-anchor="middle" transform="translate(226.66666666666666,15)" font-family="sans-serif" font-size="10px" fill="#000" opacity="1">10</text><text text-anchor="middle" transform="translate(272,15)" font-family="sans-serif" font-size="10px" fill="#000" opacity="1">12</text><text text-anchor="middle" transform="translate(317.3333333333333,15)" font-family="sans-serif" font-size="10px" fill="#000" opacity="1">14</text><text text-anchor="middle" transform="translate(362.6666666666667,15)" font-family="sans-serif" font-size="10px" fill="#000" opacity="1">16</text><text text-anchor="middle" transform="translate(408,15)" font-family="sans-serif" font-size="10px" fill="#000" opacity="1">18</text><text text-anchor="middle" transform="translate(453.3333333333333,15)" font-family="sans-serif" font-size="10px" fill="#000" opacity="1">20</text><text text-anchor="middle" transform="translate(498.66666666666663,15)" font-family="sans-serif" font-size="10px" fill="#000" opacity="1">22</text><text text-anchor="middle" transform="translate(544,15)" font-family="sans-serif" font-size="10px" fill="#000" opacity="1">24</text><text text-anchor="middle" transform="translate(589.3333333333334,15)" font-family="sans-serif" font-size="10px" fill="#000" opacity="1">26</text><text text-anchor="middle" transform="translate(634.6666666666666,15)" font-family="sans-serif" font-size="10px" fill="#000" opacity="1">28</text><text text-anchor="end" transform="translate(680,15)" font-family="sans-serif" font-size="10px" fill="#000" opacity="1">30</text></g><g class="mark-rule role-axis-domain" pointer-events="none"><line transform="translate(0,0)" x2="680" y2="0" stroke="#888" stroke-width="1" opacity="1"/></g></g><path class="foreground" aria-hidden="true" d="" pointer-events="none" display="none"/></g></g><g class="mark-group role-axis" role="graphics-symbol" aria-roledescription="axis" aria-label="Y-axis for a discrete scale with 5 values: 30-year fixed, 15-year fixed, 5/1 ARM, 20-year fixed, 7/1 ARM"><g transform="translate(0.5,0.5)"><path class="background" aria-hidden="true" d="M0,0h0v0h0Z" pointer-events="none"/><g><g class="mark-rule role-axis-tick" pointer-events="none"><line transform="translate(0,40)" x2="-5" y2="0" stroke="#888" stroke-width="1" opacity="1"/><line transform="translate(0,123)" x2="-5" y2="0" stroke="#888" stroke-width="1" opacity="1"/><line transform="translate(0,205)" x2="-5" y2="0" stroke="#888" stroke-width="1" opacity="1"/><line transform="translate(0,287)" x2="-5" y2="0" stroke="#888" stroke-width="1" opacity="1"/><line transform="translate(0,369)" x2="-5" y2="0" stroke="#888" stroke-width="1" opacity="1"/></g><g class="mark-text role-axis-label" pointer-events="none"><text text-anchor="end" transform="translate(-7,43.49999999999999)" font-family="sans-serif" font-size="10px" fill="#000" opacity="1">30-year fixed</text><text text-anchor="end" transform="translate(-7,125.5)" font-family="sans-serif" font-size="10px" fill="#000" opacity="1">15-year fixed</text><text text-anchor="end" transform="translate(-7,207.5)" font-family="sans-serif" font-size="10px" fill="#000" opacity="1">5/1 ARM</text><text text-anchor="end" transform="translate(-7,289.5)" font-family="sans-serif" font-size="10px" fill="#000" opacity="1">20-year fixed</text><text text-anchor="end" transform="translate(-7,371.5)" font-family="sans-serif" font-size="10px" fill="#000" opacity="1">7/1 ARM</text></g><g class="mark-rule role-axis-domain" pointer-events="none"><line transform="translate(0,0)" x2="0" y2="410" stroke="#888" stroke-width="1" opacity="1"/></g></g><path class="foreground" aria-hidden="true" d="" pointer-events="none" display="none"/></g></g><g class="mark-group role-scope" role="graphics-object" aria-roledescription="group mark container"><g transform="translate(0,4.099999999999994)"><path class="background" aria-hidden="true" d="M0,0L677,0C678.655745073482,0,680,1.344254926518,680,3L680,70.8C680,72.45574507348199,678.655745073482,73.8,677,73.8L0,73.8C0,73.8,0,73.8,0,73.8L0,0C0,0,0,0,0,0Z"/><g clip-path="url(#clip35)"><g class="mark-group role-scope" role="graphics-object" aria-roledescription="group mark container"><g transform="translate(0,0)"><path class="background" aria-hidden="true" d="M0,0h0v73.8h0Z"/><g><g class="mark-rect role-mark marks" role="graphics-object" aria-roledescription="rect mark container"><path aria-label="value: 30; label: 30-year fixed" role="graphics-symbol" aria-roledescription="bar" d="M0,0h680v73.8h-680Z" fill="#4c6ef5"/></g></g><path class="foreground" aria-hidden="true" d="" display="none"/></g></g></g><path class="foreground" aria-hidden="true" d="" display="none"/></g><g transform="translate(0,86.1)"><path class="background" aria-hidden="true" d="M0,0L337,0C338.655745073482,0,340,1.344254926518,340,3L340,70.8C340,72.45574507348199,338.655745073482,73.8,337,73.8L0,73.8C0,73.8,0,73.8,0,73.8L0,0C0,0,0,0,0,0Z"/><g clip-path="url(#clip36)"><g class="mark-group role-scope" role="graphics-object" aria-roledescription="group mark container"><g transform="translate(0,0)"><path class="background" aria-hidden="true" d="M0,0h0v73.8h0Z"/><g><g class="mark-rect role-mark marks" role="graphics-object" aria-roledescription="rect mark container"><path aria-label="value: 15; label: 15-year fixed" role="graphics-symbol" aria-roledescription="bar" d="M0,0h340v73.8h-340Z" fill="#4c6ef5"/></g></g><path class="foreground" aria-hidden="true" d="" display="none"/></g></g></g><path class="foreground" aria-hidden="true" d="" display="none"/></g><g transform="translate(0,168.1)"><path class="background" aria-hidden="true" d="M0,0L110.33333333333333,0C111.98907840681532,0,113.33333333333333,1.344254926518,113.33333333333333,3L113.33333333333333,70.8C113.33333333333333,72.45574507348199,111.98907840681532,73.8,110.33333333333333,73.8L0,73.8C0,73.8,0,73.8,0,73.8L0,0C0,0,0,0,0,0Z"/><g clip-path="url(#clip37)"><g class="mark-group role-scope" role="graphics-object" aria-roledescription="group mark container"><g transform="translate(0,0)"><path class="background" aria-hidden="true" d="M0,0h0v73.8h0Z"/><g><g class="mark-rect role-mark marks" role="graphics-object" aria-roledescription="rect mark container"><path aria-label="value: 5; label: 5/1 ARM" role="graphics-symbol" aria-roledescription="bar" d="M0,0h113.33333333333333v73.8h-113.33333333333333Z" fill="#4c6ef5"/></g></g><path class="foreground" aria-hidden="true" d="" display="none"/></g></g></g><path class="foreground" aria-hidden="true" d="" display="none"/></g><g transform="translate(0,250.1)"><path class="background" aria-hidden="true" d="M0,0L450.3333333333333,0C451.98907840681534,0,453.3333333333333,1.344254926518,453.3333333333333,3L453.3333333333333,70.8C453.3333333333333,72.45574507348199,451.98907840681534,73.8,450.3333333333333,73.8L0,73.8C0,73.8,0,73.8,0,73.8L0,0C0,0,0,0,0,0Z"/><g clip-path="url(#clip38)"><g class="mark-group role-scope" role="graphics-object" aria-roledescription="group mark container"><g transform="translate(0,0)"><path class="background" aria-hidden="true" d="M0,0h0v73.8h0Z"/><g><g class="mark-rect role-mark marks" role="graphics-object" aria-roledescription="rect mark container"><path aria-label="value: 20; label: 20-year fixed" role="graphics-symbol" aria-roledescription="bar" d="M0,0h453.3333333333333v73.8h-453.3333333333333Z" fill="#4c6ef5"/></g></g><path class="foreground" aria-hidden="true" d="" display="none"/></g></g></g><path class="foreground" aria-hidden="true" d="" display="none"/></g><g transform="translate(0,332.1)"><path class="background" aria-hidden="true" d="M0,0L155.66666666666666,0C157.32241174014865,0,158.66666666666666,1.344254926518,158.66666666666666,3L158.66666666666666,70.8C158.66666666666666,72.45574507348199,157.32241174014865,73.8,155.66666666666666,73.8L0,73.8C0,73.8,0,73.8,0,73.8L0,0C0,0,0,0,0,0Z"/><g clip-path="url(#clip39)"><g class="mark-group role-scope" role="graphics-object" aria-roledescription="group mark container"><g transform="translate(0,0)"><path class="background" aria-hidden="true" d="M0,0h0v73.8h0Z"/><g><g class="mark-rect role-mark marks" role="graphics-object" aria-roledescription="rect mark container"><path aria-label="value: 7; label: 7/1 ARM" role="graphics-symbol" aria-roledescription="bar" d="M0,0h158.66666666666666v73.8h-158.66666666666666Z" fill="#4c6ef5"/></g></g><path class="foreground" aria-hidden="true" d="" display="none"/></g></g></g><path class="foreground" aria-hidden="true" d="" display="none"/></g></g></g><path class="foreground" aria-hidden="true" d="" display="none"/></g></g></g><defs><clipPath id="clip35"><path d="M0,0L677,0C678.655745073482,0,680,1.344254926518,680,3L680,70.8C680,72.45574507348199,678.655745073482,73.8,677,73.8L0,73.8C0,73.8,0,73.8,0,73.8L0,0C0,0,0,0,0,0Z"/></clipPath><clipPath id="clip36"><path d="M0,0L337,0C338.655745073482,0,340,1.344254926518,340,3L340,70.8C340,72.45574507348199,338.655745073482,73.8,337,73.8L0,73.8C0,73.8,0,73.8,0,73.8L0,0C0,0,0,0,0,0Z"/></clipPath><clipPath id="clip37"><path d="M0,0L110.33333333333333,0C111.98907840681532,0,113.33333333333333,1.344254926518,113.33333333333333,3L113.33333333333333,70.8C113.33333333333333,72.45574507348199,111.98907840681532,73.8,110.33333333333333,73.8L0,73.8C0,73.8,0,73.8,0,73.8L0,0C0,0,0,0,0,0Z"/></clipPath><clipPath id="clip38"><path d="M0,0L450.3333333333333,0C451.98907840681534,0,453.3333333333333,1.344254926518,453.3333333333333,3L453.3333333333333,70.8C453.3333333333333,72.45574507348199,451.98907840681534,73.8,450.3333333333333,73.8L0,73.8C0,73.8,0,73.8,0,73.8L0,0C0,0,0,0,0,0Z"/></clipPath><clipPath id="clip39"><path d="M0,0L155.66666666666666,0C157.32241174014865,0,158.66666666666666,1.344254926518,158.66666666666666,3L158.66666666666666,70.8C158.66666666666666,72.45574507348199,157.32241174014865,73.8,155.66666666666666,73.8L0,73.8C0,73.8,0,73.8,0,73.8L0,0C0,0,0,0,0,0Z"/></clipPath></defs></svg>