<svg xmlns="http://www.w3.org/2000/svg" xmlns:xlink="http://www.w3.org/1999/xlink" version="1.1" class="marks" width="729" height="452" viewBox="0 0 729 452"><g fill="none" stroke-miterlimit="10" transform="translate(43,5)"><g class="mark-group role-frame root" role="graphics-object" aria-roledescription="group mark container"><g transform="translate(0,0)"><path class="background" aria-hidden="true" d="M0,0h680v410h-680Z"/><g><g class="mark-group role-axis" role="graphics-symbol" aria-roledescription="axis" aria-label="X-axis titled 'kg' for a linear scale with values from 0 to 400"><g transform="translate(0.5,410.5)"><path class="background" aria-hidden="true" d="M0,0h0v0h0Z" pointer-events="none"/><g><g class="mark-rule role-axis-tick" pointer-events="none"><line transform="translate(0,0)" x2="0" y2="5" stroke="#888" stroke-width="1" opacity="1"/><line transform="translate(34,0)" x2="0" y2="5" stroke="#888" stroke-width="1" opacity="1"/><line transform="translate(68,0)" x2="0" y2="5" stroke="#888" stroke-width="1" opacity="1"/><line transform="translate(102,0)" x2="0" y2="5" stroke="#888" stroke-width="1" opacity="1"/><line transform="translate(136,0)" x2="0" y2="5" stroke="#888" stroke-width="1" opacity="1"/><line transform="translate(170,0)" x2="0" y2="5" stroke="#888" stroke-width="1" opacity="1"/><line transform="translate(204,0)" x2="0" y2="5" stroke="#888" stroke-width="1" opacity="1"/><line transform="translate(238,0)" x2="0" y2="5" stroke="#888" stroke-width="1" opacity="1"/><line transform="translate(272,0)" x2="0" y2="5" stroke="#888" stroke-width="1" opacity="1"/><line transform="translate(306,0)" x2="0" y2="5" stroke="#888" stroke-width="1" opacity="1"/><line transform="translate(340,0)" x2="0" y2="5" stroke="#888" stroke-width="1" opacity="1"/><line transform="translate(374,0)" x2="0" y2="5" stroke="#888" stroke-width="1" opacity="1"/><line transform="translate(408,0)" x2="0" y2="5" stroke="#888" stroke-width="1" opacity="1"/><line transform="translate(442,0)" x2="0" y2="5" stroke="#888" stroke-width="1" opacity="1"/><line transform="translate(476,0)" x2="0" y2="5" stroke="#888" stroke-width="1" opacity="1"/><line transform="translate(510,0)" x2="0" y2="5" stroke="#888" stroke-width="1" opacity="1"/><line transform="translate(544,0)" x2="0" y2="5" stroke="#888" stroke-width="1" opacity="1"/><line transform="translate(578,0)" x2="0" y2="5" stroke="#888" stroke-width="1" opacity="1"/><line transform="translate(612,0)" x2="0" y2="5" stroke="#888" stroke-width="1" opacity="1"/><line transform="translate(646,0)" x2="0" y2="5" stroke="#888" stroke-width="1" opacity="1"/><line transform="translate(680,0)" x2="0" y2="5" stroke="#888" stroke-width="1" opacity="1"/></g><g class="mark-text role-axis-label" pointer-events="none"><text text-anchor="start" transform="translate(0,15)" font-family="sans-serif" font-size="10px" fill="#000" opacity="1">0</text><text text-anchor="middle" transform="translate(34,15)" font-family="sans-serif" font-size="10px" fill="#000" opacity="1">20</text><text text-anchor="middle" transform="translate(68,15)" font-family="sans-serif" font-size="10px" fill="#000" opacity="1">40</text><text text-anchor="middle" transform="translate(102,15)" font-family="sans-serif" font-size="10px" fill="#000" opacity="1">60</text><text text-anchor="middle" transform="translate(136,15)" font-family="sans-serif" font-size="10px" fill="#000" opacity="1">80</text><text text-anchor="middle" transform="translate(170,15)" font-family="sans-serif" font-size="10px" fill="#000" opacity="1">100</text><text text-anchor="middle" transform="translate(204,15)" font-family="sans-serif" font-size="10px" fill="#000" opacity="1">120</text><text text-anchor="middle" transform="translate(237.99999999999997,15)" font-family="sans-serif" font-size="10px" fill="#000" opacity="1">140</text><text text-anchor="middle" transform="translate(272,15)" font-family="sans-serif" font-size="10px" fill="#000" opacity="1">160</text><text text-anchor="middle" transform="translate(306,15)" font-family="sans-serif" font-size="10px" fill="#000" opacity="1">180</text><text text-anchor="middle" transform="translate(340,15)" font-family="sans-serif" font-size="10px" fill="#000" opacity="1">200</text><text text-anchor="middle" transform="translate(374.00000000000006,15)" font-family="sans-serif" font-size="10px" fill="#000" opacity="1">220</text><text text-anchor="middle" transform="translate(408,15)" font-family="sans-serif" font-size="10px" fill="#000" opacity="1">240</text><text text-anchor="middle" transform="translate(442,15)" font-family="sans-serif" font-size="10px" fill="#000" opacity="1">260</text><text text-anchor="middle" transform="translate(475.99999999999994,15)" font-family="sans-serif" font-size="10px" fill="#000" opacity="1">280</text><text text-anchor="middle" transform="translate(510,15)" font-family="sans-serif" font-size="10px" fill="#000" opacity="1">300</text><text text-anchor="middle" transform="translate(544,15)" font-family="sans-serif" font-size="10px" fill="#000" opacity="1">320</text><text text-anchor="middle" transform="translate(578,15)" font-family="sans-serif" font-size="10px" fill="#000" opacity="1">340</text><text text-anchor="middle" transform="translate(612,15)" font-family="sans-serif" font-size="10px" fill="#000" opacity="1">360</text><text text-anchor="middle" transform="translate(646,15)" font-family="sans-serif" font-size="10px" fill="#000" opacity="1">380</text><text text-anchor="end" transform="translate(680,15)" font-family="sans-serif" font-size="10px" fill="#000" opacity="1">400</text></g><g class="mark-rule role-axis-domain" pointer-events="none"><line transform="translate(0,0)" x2="680" y2="0" stroke="#888" stroke-width="1" opacity="1"/></g><g class="mark-text role-axis-title" pointer-events="none"><text text-anchor="middle" transform="translate(340,30)" font-family="sans-serif" font-size="11px" font-weight="bold" fill="#000" opacity="1">kg</text></g></g><path class="foreground" aria-hidden="true" d="" pointer-events="none" display="none"/></g></g><g class="mark-group role-axis" role="graphics-symbol" aria-roledescription="axis" aria-label="Y-axis for a discrete scale with 5 values: 400 kg, 49 kg, 20 kg, 2.5 kg, 60 kg"><g transform="translate(0.5,0.5)"><path class="background" aria-hidden="true" d="M0,0h0v0h0Z" pointer-events="none"/><g><g class="mark-rule role-axis-tick" pointer-events="none"><line transform="translate(0,40)" x2="-5" y2="0" stroke="#888" stroke-width="1" opacity="1"/><line transform="translate(0,123)" x2="-5" y2="0" stroke="#888" stroke-width="1" opacity="1"/><line transform="translate(0,205)" x2="-5" y2="0" stroke="#888" stroke-width="1" opacity="1"/><line transform="translate(0,287)" x2="-5" y2="0" stroke="#888" stroke-width="1" opacity="1"/><line transform="translate(0,369)" x2="-5" y2="0" stroke="#888" stroke-width="1" opacity="1"/></g><g class="mark-text role-axis-label" pointer-events="none"><text text-anchor="end" transform="translate(-7,43.49999999999999)" font-family="sans-serif" font-size="10px" fill="#000" opacity="1">400 kg</text><text text-anchor="end" transform="translate(-7,125.5)" font-family="sans-serif" font-size="10px" fill="#000" opacity="1">49 kg</text><text text-anchor="end" transform="translate(-7,207.5)" font-family="sans-serif" font-size="10px" fill="#000" opacity="1">20 kg</text><text text-anchor="end" transform="translate(-7,289.5)" font-family="sans-serif" font-size="10px" fill="#000" opacity="1">2.5 kg</text><text text-anchor="end" transform="translate(-7,371.5)" font-family="sans-serif" font-size="10px" fill="#000" opacity="1">60 kg</text></g><g class="mark-rule role-axis-domain" pointer-events="none"><line transform="translate(0,0)" x2="0" y2="410" stroke="#888" stroke-width="1" opacity="1"/></g></g><path class="foreground" aria-hidden="true" d="" pointer-events="none" display="none"/></g></g><g class="mark-group role-scope" role="graphics-object" aria-roledescription="group mark container"><g transform="translate(0,4.099999999999994)"><path class="background" aria-hidden="true" d="M0,0L677,0C678.655745073482,0,680,1.344254926518,680,3L680,70.8C680,72.45574507348199,678.655745073482,73.8,677,73.8L0,73.8C0,73.8,0,73.8,0,73.8L0,0C0,0,0,0,0,0Z"/><g clip-path="url(#clip9)"><g class="mark-group role-scope" role="graphics-object" aria-roledescription="group mark container"><g transform="translate(0,0)"><path class="background" aria-hidden="true" d="M0,0h0v73.8h0Z"/><g><g class="mark-rect role-mark marks" role="graphics-object" aria-roledescription="rect mark container"><path aria-label="value: 400; label: 400 kg" role="graphics-symbol" aria-roledescription="bar" d="M0,0h680v73.8h-680Z" fill="#4c6ef5"/></g></g><path class="foreground" aria-hidden="true" d="" display="none"/></g></g></g><path class="foreground" aria-hidden="true" d="" display="none"/></g><g transform="translate(0,86.1)"><path class="background" aria-hidden="true" d="M0,0L80.3,0C81.95574507348199,0,83.3,1.344254926518,83.3,3L83.3,70.8C83.3,72.45574507348199,81.95574507348199,73.8,80.3,73.8L0,73.8C0,73.8,0,73.8,0,73.8L0,0C0,0,0,0,0,0Z"/><g clip-path="url(#clip10)"><g class="mark-group role-scope" role="graphics-object" aria-roledescription="group mark container"><g transform="translate(0,0)"><path class="background" aria-hidden="true" d="M0,0h0v73.8h0Z"/><g><g class="mark-rect role-mark marks" role="graphics-object" aria-roledescription="rect mark container"><path aria-label="value: 49; label: 49 kg" role="graphics-symbol" aria-roledescription="bar" d="M0,0h83.3v73.8h-83.3Z" fill="#4c6ef5"/></g></g><path class="foreground" aria-hidden="true" d="" display="none"/></g></g></g><path class="foreground" aria-hidden="true" d="" display="none"/></g><g transform="translate(0,168.1)"><path class="background" aria-hidden="true" d="M0,0L31,0C32.655745073482,0,34,1.344254926518,34,3L34,70.8C34,72.45574507348199,32.655745073482,73.8,31,73.8L0,73.8C0,73.8,0,73.8,0,73.8L0,0C0,0,0,0,0,0Z"/><g clip-path="url(#clip11)"><g class="mark-group role-scope" role="graphics-object" aria-roledescription="group mark container"><g transform="translate(0,0)"><path class="background" aria-hidden="true" d="M0,0h0v73.8h0Z"/><g><g class="mark-rect role-mark marks" role="graphics-object" aria-roledescription="rect mark container"><path aria-label="value: 20; label: 20 kg" role="graphics-symbol" aria-roledescription="bar" d="M0,0h34v73.8h-34Z" fill="#4c6ef5"/></g></g><path class="foreground" aria-hidden="true" d="" display="none"/></g></g></g><path class="foreground" aria-hidden="true" d="" display="none"/></g><g transform="translate(0,250.1)"><path class="background" aria-hidden="true" d="M0,0L2.125,0C3.29781942704975,0,4.25,0.95218057295025,4.25,2.125L4.25,71.675C4.25,72.84781942704974,3.29781942704975,73.8,2.125,73.8L0,73.8C0,73.8,0,73.8,0,73.8L0,0C0,0,0,0,0,0Z"/><g clip-path="url(#clip12)"><g class="mark-group role-scope" role="graphics-object" aria-roledescription="group mark container"><g transform="translate(0,0)"><path class="background" aria-hidden="true" d="M0,0h0v73.8h0Z"/><g><g class="mark-rect role-mark marks" role="graphics-object" aria-roledescription="rect mark container"><path aria-label="value: 2.5; label: 2.5 kg" role="graphics-symbol" aria-roledescription="bar" d="M0,0h4.25v73.8h-4.25Z" fill="#4c6ef5"/></g></g><path class="foreground" aria-hidden="true" d="" display="none"/></g></g></g><path class="foreground" aria-hidden="true" d="" display="none"/></g><g transform="translate(0,332.1)"><path class="background" aria-hidden="true" d="M0,0L99,0C100.655745073482,0,102,1.344254926518,102,3L102,70.8C102,72.45574507348199,100.655745073482,73.8,99,73.8L0,73.8C0,73.8,0,73.8,0,73.8L0,0C0,0,0,0,0,0Z"/><g clip-path="url(#clip13)"><g class="mark-group role-scope" role="graphics-object" aria-roledescription="group mark container"><g transform="translate(0,0)"><path class="background" aria-hidden="true" d="M0,0h0v73.8h0Z"/><g><g class="mark-rect role-mark marks" role="graphics-object" aria-roledescription="rect mark container"><path aria-label="value: 60; label: 60 kg" role="graphics-symbol" aria-roledescription="bar" d="M0,0h102v73.8h-102Z" fill="#4c6ef5"/></g></g><path class="foreground" aria-hidden="true" d="" display="none"/></g></g></g><path class="foreground" aria-hidden="true" d="" display="none"/></g></g></g><path class="foreground" aria-hidden="true" d="" display="none"/></g></g></g><defs><clipPath id="clip9"><path d="M0,0L677,0C678.655745073482,0,680,1.344254926518,680,3L680,70.8C680,72.45574507348199,678.655745073482,73.8,677,73.8L0,73.8C0,73.8,0,73.8,0,73.8L0,0C0,0,0,0,0,0Z"/></clipPath><clipPath id="clip10"><path d="M0,0L80.3,0C81.95574507348199,0,83.3,1.344254926518,83.3,3L83.3,70.8C83.3,72.45574507348199,81.95574507348199,73.8,80.3,73.8L0,73.8C0,73.8,0,73.8,0,73.8L0,0C0,0,0,0,0,0Z"/></clipPath><clipPath id="clip11"><path d="M0,0L31,0C32.655745073482,0,34,1.344254926518,34,3L34,70.8C34,72.45574507348199,32.655745073482,73.8,31,73.8L0,73.8C0,73.8,0,73.8,0,73.8L0,0C0,0,0,0,0,0Z"/></clipPath><clipPath id="clip12"><path d="M0,0L2.125,0C3.29781942704975,0,4.25,0.95218057295025,4.25,2.125L4.25,71.675C4.25,72.84781942704974,3.29781942704975,73.8,2.125,73.8L0,73.8C0,73.8,0,73.8,0,73.8L0,0C0,0,0,0,0,0Z"/></clipPath><clipPath id="clip13"><path d="M0,0L99,0C100.655745073482,0,102,1.344254926518,102,3L102,70.8C102,72.45574507348199,100.655745073482,73.8,99,73.8L0,73.8C0,73.8,0,73.8,0,73.8L0,0C0,0,0,0,0,0Z"/></clipPath></defs></svg>