<svg xmlns="http://www.w3.org/2000/svg" xmlns:xlink="http://www.w3.org/1999/xlink" version="1.1" class="marks" width="727" height="470" viewBox="0 0 727 470"><g fill="none" stroke-miterlimit="10" transform="translate(41,23)"><g class="mark-group role-frame root" role="graphics-object" aria-roledescription="group mark container"><g transform="translate(0,0)"><path class="background" aria-hidden="true" d="M0,0h680v410h-680Z"/><g><g class="mark-group role-axis" role="graphics-symbol" aria-roledescription="axis" aria-label="X-axis titled '%' for a linear scale with values from 0 to 30"><g transform="translate(0.5,410.5)"><path class="background" aria-hidden="true" d="M0,0h0v0h0Z" pointer-events="none"/><g><g class="mark-rule role-axis-tick" pointer-events="none"><line transform="translate(0,0)" x2="0" y2="5" stroke="#888" stroke-width="1" opacity="1"/><line transform="translate(45,0)" x2="0" y2="5" stroke="#888" stroke-width="1" opacity="1"/><line transform="translate(91,0)" x2="0" y2="5" stroke="#888" stroke-width="1" opacity="1"/><line transform="translate(136,0)" x2="0" y2="5" stroke="#888" stroke-width="1" opacity="1"/><line transform="translate(181,0)" x2="0" y2="5" stroke="#888" stroke-width="1" opacity="1"/><line transform="translate(227,0)" x2="0" y2="5" stroke="#888" stroke-width="1" opacity="1"/><line transform="translate(272,0)" x2="0" y2="5" stroke="#888" stroke-width="1" opacity="1"/><line transform="translate(317,0)" x2="0" y2="5" stroke="#888" stroke-width="1" opacity="1"/><line transform="translate(363,0)" x2="0" y2="5" stroke="#888" stroke-width="1" opacity="1"/><line transform="translate(408,0)" x2="0" y2="5" stroke="#888" stroke-width="1" opacity="1"/><line transform="translate(453,0)" x2="0" y2="5" stroke="#888" stroke-width="1" opacity="1"/><line transform="translate(499,0)" x2="0" y2="5" stroke="#888" stroke-width="1" opacity="1"/><line transform="translate(544,0)" x2="0" y2="5" stroke="#888" stroke-width="1" opacity="1"/><line transform="translate(589,0)" x2="0" y2="5" stroke="#888" stroke-width="1" opacity="1"/><line transform="translate(635,0)" x2="0" y2="5" stroke="#888" stroke-width="1" opacity="1"/><line transform="translate(680,0)" x2="0" y2="5" stroke="#888" stroke-width="1" opacity="1"/></g><g class="mark-text role-axis-label" pointer-events="none"><text text-anchor="start" transform="translate(0,15)" font-family="sans-serif" font-size="10px" fill="#000" opacity="1">0</text><text text-anchor="middle" transform="translate(45.333333333333336,15)" font-family="sans-serif" font-size="10px" fill="#000" opacity="1">2</text><text text-anchor="middle" transform="translate(90.66666666666667,15)" font-family="sans-serif" font-size="10px" fill="#000" opacity="1">4</text><text text-anchor="middle" transform="translate(136,15)" font-family="sans-serif" font-size="10px" fill="#000" opacity="1">6</text><text text-anchor="middle" transform="translate(181.33333333333334,15)" font-family="sans-serif" font-size="10px" fill="#000" opacity="1">8</text><text text-anchor="middle" transform="translate(226.66666666666666,15)" font-family="sans-serif" font-size="10px" fill="#000" opacity="1">10</text><text text-anchor="middle" transform="translate(272,15)" font-family="sans-serif" font-size="10px" fill="#000" opacity="1">12</text><text text-anchor="middle" transform="translate(317.3333333333333,15)" font-family="sans-serif" font-size="10px" fill="#000" opacity="1">14</text><text text-anchor="middle" transform="translate(362.6666666666667,15)" font-family="sans-serif" font-size="10px" fill="#000" opacity="1">16</text><text text-anchor="middle" transform="translate(408,15)" font-family="sans-serif" font-size="10px" fill="#000" opacity="1">18</text><text text-anchor="middle" transform="translate(453.3333333333333,15)" font-family="sans-serif" font-size="10px" fill="#000" opacity="1">20</text><text text-anchor="middle" transform="translate(498.66666666666663,15)" font-family="sans-serif" font-size="10px" fill="#000" opacity="1">22</text><text text-anchor="middle" transform="translate(544,15)" font-family="sans-serif" font-size="10px" fill="#000" opacity="1">24</text><text text-anchor="middle" transform="translate(589.3333333333334,15)" font-family="sans-serif" font-size="10px" fill="#000" opacity="1">26</text><text text-anchor="middle" transform="translate(634.6666666666666,15)" font-family="sans-serif" font-size="10px" fill="#000" opacity="1">28</text><text text-anchor="end" transform="translate(680,15)" font-family="sans-serif" font-size="10px" fill="#000" opacity="1">30</text></g><g class="mark-rule role-axis-domain" pointer-events="none"><line transform="translate(0,0)" x2="680" y2="0" stroke="#888" stroke-width="1" opacity="1"/></g><g class="mark-text role-axis-title" pointer-events="none"><text text-anchor="middle" transform="translate(340,30)" font-family="sans-serif" font-size="11px" font-weight="bold" fill="#000" opacity="1">%</text></g></g><path class="foreground" aria-hidden="true" d="" pointer-events="none" display="none"/></g></g><g class="mark-group role-axis" role="graphics-symbol" aria-roledescription="axis" aria-label="Y-axis for a discrete scale with 5 values: 26.8%, 29.9%, 4.3%, 29.5%, 7.4%"><g transform="translate(0.5,0.5)"><path class="background" aria-hidden="true" d="M0,0h0v0h0Z" pointer-events="none"/><g><g class="mark-rule role-axis-tick" pointer-events="none"><line transform="translate(0,40)" x2="-5" y2="0" stroke="#888" stroke-width="1" opacity="1"/><line transform="translate(0,123)" x2="-5" y2="0" stroke="#888" stroke-width="1" opacity="1"/><line transform="translate(0,205)" x2="-5" y2="0" stroke="#888" stroke-width="1" opacity="1"/><line transform="translate(0,287)" x2="-5" y2="0" stroke="#888" stroke-width="1" opacity="1"/><line transform="translate(0,369)" x2="-5" y2="0" stroke="#888" stroke-width="1" opacity="1"/></g><g class="mark-text role-axis-label" pointer-events="none"><text text-anchor="end" transform="translate(-7,43.49999999999999)" font-family="sans-serif" font-size="10px" fill="#000" opacity="1">26.8%</text><text text-anchor="end" transform="translate(-7,125.5)" font-family="sans-serif" font-size="10px" fill="#000" opacity="1">29.9%</text><text text-anchor="end" transform="translate(-7,207.5)" font-family="sans-serif" font-size="10px" fill="#000" opacity="1">4.3%</text><text text-anchor="end" transform="translate(-7,289.5)" font-family="sans-serif" font-size="10px" fill="#000" opacity="1">29.5%</text><text text-anchor="end" transform="translate(-7,371.5)" font-family="sans-serif" font-size="10px" fill="#000" opacity="1">7.4%</text></g><g class="mark-rule role-axis-domain" pointer-events="none"><line transform="translate(0,0)" x2="0" y2="410" stroke="#888" stroke-width="1" opacity="1"/></g></g><path class="foreground" aria-hidden="true" d="" pointer-events="none" display="none"/></g></g><g class="mark-group role-scope" role="graphics-object" aria-roledescription="group mark container"><g transform="translate(0,4.099999999999994)"><path class="background" aria-hidden="true" d="M0,0L604.4666666666667,0C606.1224117401487,0,607.4666666666667,1.344254926518,607.4666666666667,3L607.4666666666667,70.8C607.4666666666667,72.45574507348199,606.1224117401487,73.8,604.4666666666667,73.8L0,73.8C0,73.8,0,73.8,0,73.8L0,0C0,0,0,0,0,0Z"/><g clip-path="url(#clip13)"><g class="mark-group role-scope" role="graphics-object" aria-roledescription="group mark container"><g transform="translate(0,0)"><path class="background" aria-hidden="true" d="M0,0h0v73.8h0Z"/><g><g class="mark-rect role-mark marks" role="graphics-object" aria-roledescription="rect mark container"><path aria-label="value: 26.8; label: 26.8%" role="graphics-symbol" aria-roledescription="bar" d="M0,0h607.4666666666667v73.8h-607.4666666666667Z" fill="#4c6ef5"/></g></g><path class="foreground" aria-hidden="true" d="" display="none"/></g></g></g><path class="foreground" aria-hidden="true" d="" display="none"/></g><g transform="translate(0,86.1)"><path class="background" aria-hidden="true" d="M0,0L674.7333333333332,0C676.3890784068152,0,677.7333333333332,1.344254926518,677.7333333333332,3L677.7333333333332,70.8C677.7333333333332,72.45574507348199,676.3890784068152,73.8,674.7333333333332,73.8L0,73.8C0,73.8,0,73.8,0,73.8L0,0C0,0,0,0,0,0Z"/><g clip-path="url(#clip14)"><g class="mark-group role-scope" role="graphics-object" aria-roledescription="group mark container"><g transform="translate(0,0)"><path class="background" aria-hidden="true" d="M0,0h0v73.8h0Z"/><g><g class="mark-rect role-mark marks" role="graphics-object" aria-roledescription="rect mark container"><path aria-label="value: 29.9; label: 29.9%" role="graphics-symbol" aria-roledescription="bar" d="M0,0h677.7333333333332v73.8h-677.7333333333332Z" fill="#4c6ef5"/></g></g><path class="foreground" aria-hidden="true" d="" display="none"/></g></g></g><path class="foreground" aria-hidden="true" d="" display="none"/></g><g transform="translate(0,168.1)"><path class="background" aria-hidden="true" d="M0,0L94.46666666666667,0C96.12241174014866,0,97.46666666666667,1.344254926518,97.46666666666667,3L97.46666666666667,70.8C97.46666666666667,72.45574507348199,96.12241174014866,73.8,94.46666666666667,73.8L0,73.8C0,73.8,0,73.8,0,73.8L0,0C0,0,0,0,0,0Z"/><g clip-path="url(#clip15)"><g class="mark-group role-scope" role="graphics-object" aria-roledescription="group mark container"><g transform="translate(0,0)"><path class="background" aria-hidden="true" d="M0,0h0v73.8h0Z"/><g><g class="mark-rect role-mark marks" role="graphics-object" aria-roledescription="rect mark container"><path aria-label="value: 4.3; label: 4.3%" role="graphics-symbol" aria-roledescription="bar" d="M0,0h97.46666666666667v73.8h-97.46666666666667Z" fill="#4c6ef5"/></g></g><path class="foreground" aria-hidden="true" d="" display="none"/></g></g></g><path class="foreground" aria-hidden="true" d="" display="none"/></g><g transform="translate(0,250.1)"><path class="background" aria-hidden="true" d="M0,0L665.6666666666666,0C667.3224117401486,0,668.6666666666666,1.344254926518,668.6666666666666,3L668.6666666666666,70.8C668.6666666666666,72.45574507348199,667.3224117401486,73.8,665.6666666666666,73.8L0,73.8C0,73.8,0,73.8,0,73.8L0,0C0,0,0,0,0,0Z"/><g clip-path="url(#clip16)"><g class="mark-group role-scope" role="graphics-object" aria-roledescription="group mark container"><g transform="translate(0,0)"><path class="background" aria-hidden="true" d="M0,0h0v73.8h0Z"/><g><g class="mark-rect role-mark marks" role="graphics-object" aria-roledescription="rect mark container"><path aria-label="value: 29.5; label: 29.5%" role="graphics-symbol" aria-roledescription="bar" d="M0,0h668.6666666666666v73.8h-668.6666666666666Z" fill="#4c6ef5"/></g></g><path class="foreground" aria-hidden="true" d="" display="none"/></g></g></g><path class="foreground" aria-hidden="true" d="" display="none"/></g><g transform="translate(0,332.1)"><path class="background" aria-hidden="true" d="M0,0L164.73333333333335,0C166.38907840681534,0,167.73333333333335,1.344254926518,167.73333333333335,3L167.73333333333335,70.8C167.73333333333335,72.45574507348199,166.38907840681534,73.8,164.73333333333335,73.8L0,73.8C0,73.8,0,73.8,0,73.8L0,0C0,0,0,0,0,0Z"/><g clip-path="url(#clip17)"><g class="mark-group role-scope" role="graphics-object" aria-roledescription="group mark container"><g transform="translate(0,0)"><path class="background" aria-hidden="true" d="M0,0h0v73.8h0Z"/><g><g class="mark-rect role-mark marks" role="graphics-object" aria-roledescription="rect mark container"><path aria-label="value: 7.4; label: 7.4%" role="graphics-symbol" aria-roledescription="bar" d="M0,0h167.73333333333335v73.8h-167.73333333333335Z" fill="#4c6ef5"/></g></g><path class="foreground" aria-hidden="true" d="" display="none"/></g></g></g><path class="foreground" aria-hidden="true" d="" display="none"/></g></g><g class="mark-group role-title"><g transform="translate(-35.3544921875,-18)"><path class="background" aria-hidden="true" d="M0,0h0v0h0Z" pointer-events="none"/><g><g class="mark-text role-title-text" role="graphics-symbol" aria-roledescription="title" aria-label="Title text 'Fiscal Deficit Percentages and Figures'" pointer-events="none"><text text-anchor="start" transform="translate(0,11)" font-family="sans-serif" font-size="14px" font-weight="bold" fill="#000" opacity="1">Fiscal Deficit Percentages and Figures</text></g></g><path class="foreground" aria-hidden="true" d="" pointer-events="none" display="none"/></g></g></g><path class="foreground" aria-hidden="true" d="" display="none"/></g></g></g><defs><clipPath id="clip13"><path d="M0,0L604.4666666666667,0C606.1224117401487,0,607.4666666666667,1.344254926518,607.4666666666667,3L607.4666666666667,70.8C607.4666666666667,72.45574507348199,606.1224117401487,73.8,604.4666666666667,73.8L0,73.8C0,73.8,0,73.8,0,73.8L0,0C0,0,0,0,0,0Z"/></clipPath><clipPath id="clip14"><path d="M0,0L674.7333333333332,0C676.3890784068152,0,677.7333333333332,1.344254926518,677.7333333333332,3L677.7333333333332,70.8C677.7333333333332,72.45574507348199,676.3890784068152,73.8,674.7333333333332,73.8L0,73.8C0,73.8,0,73.8,0,73.8L0,0C0,0,0,0,0,0Z"/></clipPath><clipPath id="clip15"><path d="M0,0L94.46666666666667,0C96.12241174014866,0,97.46666666666667,1.344254926518,97.46666666666667,3L97.46666666666667,70.8C97.46666666666667,72.45574507348199,96.12241174014866,73.8,94.46666666666667,73.8L0,73.8C0,73.8,0,73.8,0,73.8L0,0C0,0,0,0,0,0Z"/></clipPath><clipPath id="clip16"><path d="M0,0L665.6666666666666,0C667.3224117401486,0,668.6666666666666,1.344254926518,668.6666666666666,3L668.6666666666666,70.8C668.6666666666666,72.45574507348199,667.3224117401486,73.8,665.6666666666666,73.8L0,73.8C0,73.8,0,73.8,0,73.8L0,0C0,0,0,0,0,0Z"/></clipPath><clipPath id="clip17"><path d="M0,0L164.73333333333335,0C166.38907840681534,0,167.73333333333335,1.344254926518,167.73333333333335,3L167.73333333333335,70.8C167.73333333333335,72.45574507348199,166.38907840681534,73.8,164.73333333333335,73.8L0,73.8C0,73.8,0,73.8,0,73.8L0,0C0,0,0,0,0,0Z"/></clipPath></defs></svg>