<svg xmlns="http://www.w3.org/2000/svg" xmlns:xlink="http://www.w3.org/1999/xlink" version="1.1" class="marks" width="776" height="470" viewBox="0 0 776 470"><g fill="none" stroke-miterlimit="10" transform="translate(90,23)"><g class="mark-group role-frame root" role="graphics-object" aria-roledescription="group mark container"><g transform="translate(0,0)"><path class="background" aria-hidden="true" d="M0,0h680v410h-680Z"/><g><g class="mark-group role-axis" role="graphics-symbol" aria-roledescription="axis" aria-label="X-axis titled 'dollar' for a linear scale with values from 0G to 100G"><g transform="translate(0.5,410.5)"><path class="background" aria-hidden="true" d="M0,0h0v0h0Z" pointer-events="none"/><g><g class="mark-rule role-axis-tick" pointer-events="none"><line transform="translate(0,0)" x2="0" y2="5" stroke="#888" stroke-width="1" opacity="1"/><line transform="translate(34,0)" x2="0" y2="5" stroke="#888" stroke-width="1" opacity="1"/><line transform="translate(68,0)" x2="0" y2="5" stroke="#888" stroke-width="1" opacity="1"/><line transform="translate(102,0)" x2="0" y2="5" stroke="#888" stroke-width="1" opacity="1"/><line transform="translate(136,0)" x2="0" y2="5" stroke="#888" stroke-width="1" opacity="1"/><line transform="translate(170,0)" x2="0" y2="5" stroke="#888" stroke-width="1" opacity="1"/><line transform="translate(204,0)" x2="0" y2="5" stroke="#888" stroke-width="1" opacity="1"/><line transform="translate(238,0)" x2="0" y2="5" stroke="#888" stroke-width="1" opacity="1"/><line transform="translate(272,0)" x2="0" y2="5" stroke="#888" stroke-width="1" opacity="1"/><line transform="translate(306,0)" x2="0" y2="5" stroke="#888" stroke-width="1" opacity="1"/><line transform="translate(340,0)" x2="0" y2="5" stroke="#888" stroke-width="1" opacity="1"/><line transform="translate(374,0)" x2="0" y2="5" stroke="#888" stroke-width="1" opacity="1"/><line transform="translate(408,0)" x2="0" y2="5" stroke="#888" stroke-width="1" opacity="1"/><line transform="translate(442,0)" x2="0" y2="5" stroke="#888" stroke-width="1" opacity="1"/><line transform="translate(476,0)" x2="0" y2="5" stroke="#888" stroke-width="1" opacity="1"/><line transform="translate(510,0)" x2="0" y2="5" stroke="#888" stroke-width="1" opacity="1"/><line transform="translate(544,0)" x2="0" y2="5" stroke="#888" stroke-width="1" opacity="1"/><line transform="translate(578,0)" x2="0" y2="5" stroke="#888" stroke-width="1" opacity="1"/><line transform="translate(612,0)" x2="0" y2="5" stroke="#888" stroke-width="1" opacity="1"/><line transform="translate(646,0)" x2="0" y2="5" stroke="#888" stroke-width="1" opacity="1"/><line transform="translate(680,0)" x2="0" y2="5" stroke="#888" stroke-width="1" opacity="1"/></g><g class="mark-text role-axis-label" pointer-events="none"><text text-anchor="start" transform="translate(0,15)" font-family="sans-serif" font-size="10px" fill="#000" opacity="1">0G</text><text text-anchor="middle" transform="translate(34,15)" font-family="sans-serif" font-size="10px" fill="#000" opacity="1">5G</text><text text-anchor="middle" transform="translate(68,15)" font-family="sans-serif" font-size="10px" fill="#000" opacity="1">10G</text><text text-anchor="middle" transform="translate(102,15)" font-family="sans-serif" font-size="10px" fill="#000" opacity="1">15G</text><text text-anchor="middle" transform="translate(136,15)" font-family="sans-serif" font-size="10px" fill="#000" opacity="1">20G</text><text text-anchor="middle" transform="translate(170,15)" font-family="sans-serif" font-size="10px" fill="#000" opacity="1">25G</text><text text-anchor="middle" transform="translate(204,15)" font-family="sans-serif" font-size="10px" fill="#000" opacity="1">30G</text><text text-anchor="middle" transform="translate(237.99999999999997,15)" font-family="sans-serif" font-size="10px" fill="#000" opacity="1">35G</text><text text-anchor="middle" transform="translate(272,15)" font-family="sans-serif" font-size="10px" fill="#000" opacity="1">40G</text><text text-anchor="middle" transform="translate(306,15)" font-family="sans-serif" font-size="10px" fill="#000" opacity="1">45G</text><text text-anchor="middle" transform="translate(340,15)" font-family="sans-serif" font-size="10px" fill="#000" opacity="1">50G</text><text text-anchor="middle" transform="translate(374.00000000000006,15)" font-family="sans-serif" font-size="10px" fill="#000" opacity="1">55G</text><text text-anchor="middle" transform="translate(408,15)" font-family="sans-serif" font-size="10px" fill="#000" opacity="1">60G</text><text text-anchor="middle" transform="translate(442,15)" font-family="sans-serif" font-size="10px" fill="#000" opacity="1">65G</text><text text-anchor="middle" transform="translate(475.99999999999994,15)" font-family="sans-serif" font-size="10px" fill="#000" opacity="1">70G</text><text text-anchor="middle" transform="translate(510,15)" font-family="sans-serif" font-size="10px" fill="#000" opacity="1">75G</text><text text-anchor="middle" transform="translate(544,15)" font-family="sans-serif" font-size="10px" fill="#000" opacity="1">80G</text><text text-anchor="middle" transform="translate(578,15)" font-family="sans-serif" font-size="10px" fill="#000" opacity="1">85G</text><text text-anchor="middle" transform="translate(612,15)" font-family="sans-serif" font-size="10px" fill="#000" opacity="1">90G</text><text text-anchor="middle" transform="translate(646,15)" font-family="sans-serif" font-size="10px" fill="#000" opacity="1">95G</text><text text-anchor="end" transform="translate(680,15)" font-family="sans-serif" font-size="10px" fill="#000" opacity="1">100G</text></g><g class="mark-rule role-axis-domain" pointer-events="none"><line transform="translate(0,0)" x2="680" y2="0" stroke="#888" stroke-width="1" opacity="1"/></g><g class="mark-text role-axis-title" pointer-events="none"><text text-anchor="middle" transform="translate(340,30)" font-family="sans-serif" font-size="11px" font-weight="bold" fill="#000" opacity="1">dollar</text></g></g><path class="foreground" aria-hidden="true" d="" pointer-events="none" display="none"/></g></g><g class="mark-group role-axis" role="graphics-symbol" aria-roledescription="axis" aria-label="Y-axis for a discrete scale with 3 values: 53 billion dollars, 100 billion dollars, 50 billion dollars"><g transform="translate(0.5,0.5)"><path class="background" aria-hidden="true" d="M0,0h0v0h0Z" pointer-events="none"/><g><g class="mark-rule role-axis-tick" pointer-events="none"><line transform="translate(0,68)" x2="-5" y2="0" stroke="#888" stroke-width="1" opacity="1"/><line transform="translate(0,205)" x2="-5" y2="0" stroke="#888" stroke-width="1" opacity="1"/><line transform="translate(0,341)" x2="-5" y2="0" stroke="#888" stroke-width="1" opacity="1"/></g><g class="mark-text role-axis-label" pointer-events="none"><text text-anchor="end" transform="translate(-7,70.83333333333334)" font-family="sans-serif" font-size="10px" fill="#000" opacity="1">53 billion dollars</text><text text-anchor="end" transform="translate(-7,207.5)" font-family="sans-serif" font-size="10px" fill="#000" opacity="1">100 billion dollars</text><text text-anchor="end" transform="translate(-7,344.16666666666663)" font-family="sans-serif" font-size="10px" fill="#000" opacity="1">50 billion dollars</text></g><g class="mark-rule role-axis-domain" pointer-events="none"><line transform="translate(0,0)" x2="0" y2="410" stroke="#888" stroke-width="1" opacity="1"/></g></g><path class="foreground" aria-hidden="true" d="" pointer-events="none" display="none"/></g></g><g class="mark-group role-scope" role="graphics-object" aria-roledescription="group mark container"><g transform="translate(0,6.833333333333343)"><path class="background" aria-hidden="true" d="M0,0L357.40000000000003,0C359.05574507348206,0,360.40000000000003,1.344254926518,360.40000000000003,3L360.40000000000003,120C360.40000000000003,121.655745073482,359.05574507348206,123,357.40000000000003,123L0,123C0,123,0,123,0,123L0,0C0,0,0,0,0,0Z"/><g clip-path="url(#clip17)"><g class="mark-group role-scope" role="graphics-object" aria-roledescription="group mark container"><g transform="translate(0,0)"><path class="background" aria-hidden="true" d="M0,0h0v123h0Z"/><g><g class="mark-rect role-mark marks" role="graphics-object" aria-roledescription="rect mark container"><path aria-label="value: 53G; label: 53 billion dollars" role="graphics-symbol" aria-roledescription="bar" d="M0,0h360.40000000000003v123h-360.40000000000003Z" fill="#4c6ef5"/></g></g><path class="foreground" aria-hidden="true" d="" display="none"/></g></g></g><path class="foreground" aria-hidden="true" d="" display="none"/></g><g transform="translate(0,143.5)"><path class="background" aria-hidden="true" d="M0,0L677,0C678.655745073482,0,680,1.344254926518,680,3L680,120C680,121.655745073482,678.655745073482,123,677,123L0,123C0,123,0,123,0,123L0,0C0,0,0,0,0,0Z"/><g clip-path="url(#clip18)"><g class="mark-group role-scope" role="graphics-object" aria-roledescription="group mark container"><g transform="translate(0,0)"><path class="background" aria-hidden="true" d="M0,0h0v123h0Z"/><g><g class="mark-rect role-mark marks" role="graphics-object" aria-roledescription="rect mark container"><path aria-label="value: 100G; label: 100 billion dollars" role="graphics-symbol" aria-roledescription="bar" d="M0,0h680v123h-680Z" fill="#4c6ef5"/></g></g><path class="foreground" aria-hidden="true" d="" display="none"/></g></g></g><path class="foreground" aria-hidden="true" d="" display="none"/></g><g transform="translate(0,280.16666666666663)"><path class="background" aria-hidden="true" d="M0,0L337,0C338.655745073482,0,340,1.344254926518,340,3L340,120C340,121.655745073482,338.655745073482,123,337,123L0,123C0,123,0,123,0,123L0,0C0,0,0,0,0,0Z"/><g clip-path="url(#clip19)"><g class="mark-group role-scope" role="graphics-object" aria-roledescription="group mark container"><g transform="translate(0,0)"><path class="background" aria-hidden="true" d="M0,0h0v123h0Z"/><g><g class="mark-rect role-mark marks" role="graphics-object" aria-roledescription="rect mark container"><path aria-label="value: 50G; label: 50 billion dollars" role="graphics-symbol" aria-roledescription="bar" d="M0,0h340v123h-340Z" fill="#4c6ef5"/></g></g><path class="foreground" aria-hidden="true" d="" display="none"/></g></g></g><path class="foreground" aria-hidden="true" d="" display="none"/></g></g><g class="mark-group role-title"><g transform="translate(-84.2705078125,-18)"><path class="background" aria-hidden="true" d="M0,0h0v0h0Z" pointer-events="none"/><g><g class="mark-text role-title-text" role="graphics-symbol" aria-roledescription="title" aria-label="Title text 'Bilateral Trade Deficit'" pointer-events="none"><text text-anchor="start" transform="translate(0,11)" font-family="sans-serif" font-size="14px" font-weight="bold" fill="#000" opacity="1">Bilateral Trade Deficit</text></g></g><path class="foreground" aria-hidden="true" d="" pointer-events="none" display="none"/></g></g></g><path class="foreground" aria-hidden="true" d="" display="none"/></g></g></g><defs><clipPath id="clip17"><path d="M0,0L357.40000000000003,0C359.05574507348206,0,360.40000000000003,1.344254926518,360.40000000000003,3L360.40000000000003,120C360.40000000000003,121.655745073482,359.05574507348206,123,357.40000000000003,123L0,123C0,123,0,123,0,123L0,0C0,0,0,0,0,0Z"/></clipPath><clipPath id="clip18"><path d="M0,0L677,0C678.655745073482,0,680,1.344254926518,680,3L680,120C680,121.655745073482,678.655745073482,123,677,123L0,123C0,123,0,123,0,123L0,0C0,0,0,0,0,0Z"/></clipPath><clipPath id="clip19"><path d="M0,0L337,0C338.655745073482,0,340,1.344254926518,340,3L340,120C340,121.655745073482,338.655745073482,123,337,123L0,123C0,123,0,123,0,123L0,0C0,0,0,0,0,0Z"/></clipPath></defs></svg>