<svg xmlns="http://www.w3.org/2000/svg" xmlns:xlink="http://www.w3.org/1999/xlink" version="1.1" class="marks" width="751" height="452" viewBox="0 0 751 452"><g fill="none" stroke-miterlimit="10" transform="translate(65,5)"><g class="mark-group role-frame root" role="graphics-object" aria-roledescription="group mark container"><g transform="translate(0,0)"><path class="background" aria-hidden="true" d="M0,0h680v410h-680Z"/><g><g class="mark-group role-axis" role="graphics-symbol" aria-roledescription="axis" aria-label="X-axis titled 'yuan' for a linear scale with values from 0G to 300G"><g transform="translate(0.5,410.5)"><path class="background" aria-hidden="true" d="M0,0h0v0h0Z" pointer-events="none"/><g><g class="mark-rule role-axis-tick" pointer-events="none"><line transform="translate(0,0)" x2="0" y2="5" stroke="#888" stroke-width="1" opacity="1"/><line transform="translate(45,0)" x2="0" y2="5" stroke="#888" stroke-width="1" opacity="1"/><line transform="translate(91,0)" x2="0" y2="5" stroke="#888" stroke-width="1" opacity="1"/><line transform="translate(136,0)" x2="0" y2="5" stroke="#888" stroke-width="1" opacity="1"/><line transform="translate(181,0)" x2="0" y2="5" stroke="#888" stroke-width="1" opacity="1"/><line transform="translate(227,0)" x2="0" y2="5" stroke="#888" stroke-width="1" opacity="1"/><line transform="translate(272,0)" x2="0" y2="5" stroke="#888" stroke-width="1" opacity="1"/><line transform="translate(317,0)" x2="0" y2="5" stroke="#888" stroke-width="1" opacity="1"/><line transform="translate(363,0)" x2="0" y2="5" stroke="#888" stroke-width="1" opacity="1"/><line transform="translate(408,0)" x2="0" y2="5" stroke="#888" stroke-width="1" opacity="1"/><line transform="translate(453,0)" x2="0" y2="5" stroke="#888" stroke-width="1" opacity="1"/><line transform="translate(499,0)" x2="0" y2="5" stroke="#888" stroke-width="1" opacity="1"/><line transform="translate(544,0)" x2="0" y2="5" stroke="#888" stroke-width="1" opacity="1"/><line transform="translate(589,0)" x2="0" y2="5" stroke="#888" stroke-width="1" opacity="1"/><line transform="translate(635,0)" x2="0" y2="5" stroke="#888" stroke-width="1" opacity="1"/><line transform="translate(680,0)" x2="0" y2="5" stroke="#888" stroke-width="1" opacity="1"/></g><g class="mark-text role-axis-label" pointer-events="none"><text text-anchor="start" transform="translate(0,15)" font-family="sans-serif" font-size="10px" fill="#000" opacity="1">0G</text><text text-anchor="middle" transform="translate(45.333333333333336,15)" font-family="sans-serif" font-size="10px" fill="#000" opacity="1">20G</text><text text-anchor="middle" transform="translate(90.66666666666667,15)" font-family="sans-serif" font-size="10px" fill="#000" opacity="1">40G</text><text text-anchor="middle" transform="translate(136,15)" font-family="sans-serif" font-size="10px" fill="#000" opacity="1">60G</text><text text-anchor="middle" transform="translate(181.33333333333334,15)" font-family="sans-serif" font-size="10px" fill="#000" opacity="1">80G</text><text text-anchor="middle" transform="translate(226.66666666666666,15)" font-family="sans-serif" font-size="10px" fill="#000" opacity="1">100G</text><text text-anchor="middle" transform="translate(272,15)" font-family="sans-serif" font-size="10px" fill="#000" opacity="1">120G</text><text text-anchor="middle" transform="translate(317.3333333333333,15)" font-family="sans-serif" font-size="10px" fill="#000" opacity="1">140G</text><text text-anchor="middle" transform="translate(362.6666666666667,15)" font-family="sans-serif" font-size="10px" fill="#000" opacity="1">160G</text><text text-anchor="middle" transform="translate(408,15)" font-family="sans-serif" font-size="10px" fill="#000" opacity="1">180G</text><text text-anchor="middle" transform="translate(453.3333333333333,15)" font-family="sans-serif" font-size="10px" fill="#000" opacity="1">200G</text><text text-anchor="middle" transform="translate(498.66666666666663,15)" font-family="sans-serif" font-size="10px" fill="#000" opacity="1">220G</text><text text-anchor="middle" transform="translate(544,15)" font-family="sans-serif" font-size="10px" fill="#000" opacity="1">240G</text><text text-anchor="middle" transform="translate(589.3333333333334,15)" font-family="sans-serif" font-size="10px" fill="#000" opacity="1">260G</text><text text-anchor="middle" transform="translate(634.6666666666666,15)" font-family="sans-serif" font-size="10px" fill="#000" opacity="1">280G</text><text text-anchor="end" transform="translate(680,15)" font-family="sans-serif" font-size="10px" fill="#000" opacity="1">300G</text></g><g class="mark-rule role-axis-domain" pointer-events="none"><line transform="translate(0,0)" x2="680" y2="0" stroke="#888" stroke-width="1" opacity="1"/></g><g class="mark-text role-axis-title" pointer-events="none"><text text-anchor="middle" transform="translate(340,30)" font-family="sans-serif" font-size="11px" font-weight="bold" fill="#000" opacity="1">yuan</text></g></g><path class="foreground" aria-hidden="true" d="" pointer-events="none" display="none"/></g></g><g class="mark-group role-axis" role="graphics-symbol" aria-roledescription="axis" aria-label="Y-axis for a discrete scale with 5 values: 35bn yuan, 15bn yuan, 290bn yuan, 160bn yuan, 100bn yuan"><g transform="translate(0.5,0.5)"><path class="background" aria-hidden="true" d="M0,0h0v0h0Z" pointer-events="none"/><g><g class="mark-rule role-axis-tick" pointer-events="none"><line transform="translate(0,40)" x2="-5" y2="0" stroke="#888" stroke-width="1" opacity="1"/><line transform="translate(0,123)" x2="-5" y2="0" stroke="#888" stroke-width="1" opacity="1"/><line transform="translate(0,205)" x2="-5" y2="0" stroke="#888" stroke-width="1" opacity="1"/><line transform="translate(0,287)" x2="-5" y2="0" stroke="#888" stroke-width="1" opacity="1"/><line transform="translate(0,369)" x2="-5" y2="0" stroke="#888" stroke-width="1" opacity="1"/></g><g class="mark-text role-axis-label" pointer-events="none"><text text-anchor="end" transform="translate(-7,43.49999999999999)" font-family="sans-serif" font-size="10px" fill="#000" opacity="1">35bn yuan</text><text text-anchor="end" transform="translate(-7,125.5)" font-family="sans-serif" font-size="10px" fill="#000" opacity="1">15bn yuan</text><text text-anchor="end" transform="translate(-7,207.5)" font-family="sans-serif" font-size="10px" fill="#000" opacity="1">290bn yuan</text><text text-anchor="end" transform="translate(-7,289.5)" font-family="sans-serif" font-size="10px" fill="#000" opacity="1">160bn yuan</text><text text-anchor="end" transform="translate(-7,371.5)" font-family="sans-serif" font-size="10px" fill="#000" opacity="1">100bn yuan</text></g><g class="mark-rule role-axis-domain" pointer-events="none"><line transform="translate(0,0)" x2="0" y2="410" stroke="#888" stroke-width="1" opacity="1"/></g></g><path class="foreground" aria-hidden="true" d="" pointer-events="none" display="none"/></g></g><g class="mark-group role-scope" role="graphics-object" aria-roledescription="group mark container"><g transform="translate(0,4.099999999999994)"><path class="background" aria-hidden="true" d="M0,0L76.33333333333333,0C77.98907840681532,0,79.33333333333333,1.344254926518,79.33333333333333,3L79.33333333333333,70.8C79.33333333333333,72.45574507348199,77.98907840681532,73.8,76.33333333333333,73.8L0,73.8C0,73.8,0,73.8,0,73.8L0,0C0,0,0,0,0,0Z"/><g clip-path="url(#clip20)"><g class="mark-group role-scope" role="graphics-object" aria-roledescription="group mark container"><g transform="translate(0,0)"><path class="background" aria-hidden="true" d="M0,0h0v73.8h0Z"/><g><g class="mark-rect role-mark marks" role="graphics-object" aria-roledescription="rect mark container"><path aria-label="value: 35G; label: 35bn yuan" role="graphics-symbol" aria-roledescription="bar" d="M0,0h79.33333333333333v73.8h-79.33333333333333Z" fill="#4c6ef5"/></g></g><path class="foreground" aria-hidden="true" d="" display="none"/></g></g></g><path class="foreground" aria-hidden="true" d="" display="none"/></g><g transform="translate(0,86.1)"><path class="background" aria-hidden="true" d="M0,0L31,0C32.655745073482,0,34,1.344254926518,34,3L34,70.8C34,72.45574507348199,32.655745073482,73.8,31,73.8L0,73.8C0,73.8,0,73.8,0,73.8L0,0C0,0,0,0,0,0Z"/><g clip-path="url(#clip21)"><g class="mark-group role-scope" role="graphics-object" aria-roledescription="group mark container"><g transform="translate(0,0)"><path class="background" aria-hidden="true" d="M0,0h0v73.8h0Z"/><g><g class="mark-rect role-mark marks" role="graphics-object" aria-roledescription="rect mark container"><path aria-label="value: 15G; label: 15bn yuan" role="graphics-symbol" aria-roledescription="bar" d="M0,0h34v73.8h-34Z" fill="#4c6ef5"/></g></g><path class="foreground" aria-hidden="true" d="" display="none"/></g></g></g><path class="foreground" aria-hidden="true" d="" display="none"/></g><g transform="translate(0,168.1)"><path class="background" aria-hidden="true" d="M0,0L654.3333333333334,0C655.9890784068153,0,657.3333333333334,1.344254926518,657.3333333333334,3L657.3333333333334,70.8C657.3333333333334,72.45574507348199,655.9890784068153,73.8,654.3333333333334,73.8L0,73.8C0,73.8,0,73.8,0,73.8L0,0C0,0,0,0,0,0Z"/><g clip-path="url(#clip22)"><g class="mark-group role-scope" role="graphics-object" aria-roledescription="group mark container"><g transform="translate(0,0)"><path class="background" aria-hidden="true" d="M0,0h0v73.8h0Z"/><g><g class="mark-rect role-mark marks" role="graphics-object" aria-roledescription="rect mark container"><path aria-label="value: 290G; label: 290bn yuan" role="graphics-symbol" aria-roledescription="bar" d="M0,0h657.3333333333334v73.8h-657.3333333333334Z" fill="#4c6ef5"/></g></g><path class="foreground" aria-hidden="true" d="" display="none"/></g></g></g><path class="foreground" aria-hidden="true" d="" display="none"/></g><g transform="translate(0,250.1)"><path class="background" aria-hidden="true" d="M0,0L359.6666666666667,0C361.3224117401487,0,362.6666666666667,1.344254926518,362.6666666666667,3L362.6666666666667,70.8C362.6666666666667,72.45574507348199,361.3224117401487,73.8,359.6666666666667,73.8L0,73.8C0,73.8,0,73.8,0,73.8L0,0C0,0,0,0,0,0Z"/><g clip-path="url(#clip23)"><g class="mark-group role-scope" role="graphics-object" aria-roledescription="group mark container"><g transform="translate(0,0)"><path class="background" aria-hidden="true" d="M0,0h0v73.8h0Z"/><g><g class="mark-rect role-mark marks" role="graphics-object" aria-roledescription="rect mark container"><path aria-label="value: 160G; label: 160bn yuan" role="graphics-symbol" aria-roledescription="bar" d="M0,0h362.6666666666667v73.8h-362.6666666666667Z" fill="#4c6ef5"/></g></g><path class="foreground" aria-hidden="true" d="" display="none"/></g></g></g><path class="foreground" aria-hidden="true" d="" display="none"/></g><g transform="translate(0,332.1)"><path class="background" aria-hidden="true" d="M0,0L223.66666666666666,0C225.32241174014865,0,226.66666666666666,1.344254926518,226.66666666666666,3L226.66666666666666,70.8C226.66666666666666,72.45574507348199,225.32241174014865,73.8,223.66666666666666,73.8L0,73.8C0,73.8,0,73.8,0,73.8L0,0C0,0,0,0,0,0Z"/><g clip-path="url(#clip24)"><g class="mark-group role-scope" role="graphics-object" aria-roledescription="group mark container"><g transform="translate(0,0)"><path class="background" aria-hidden="true" d="M0,0h0v73.8h0Z"/><g><g class="mark-rect role-mark marks" role="graphics-object" aria-roledescription="rect mark container"><path aria-label="value: 100G; label: 100bn yuan" role="graphics-symbol" aria-roledescription="bar" d="M0,0h226.66666666666666v73.8h-226.66666666666666Z" fill="#4c6ef5"/></g></g><path class="foreground" aria-hidden="true" d="" display="none"/></g></g></g><path class="foreground" aria-hidden="true" d="" display="none"/></g></g></g><path class="foreground" aria-hidden="true" d="" display="none"/></g></g></g><defs><clipPath id="clip20"><path d="M0,0L76.33333333333333,0C77.98907840681532,0,79.33333333333333,1.344254926518,79.33333333333333,3L79.33333333333333,70.8C79.33333333333333,72.45574507348199,77.98907840681532,73.8,76.33333333333333,73.8L0,73.8C0,73.8,0,73.8,0,73.8L0,0C0,0,0,0,0,0Z"/></clipPath><clipPath id="clip21"><path d="M0,0L31,0C32.655745073482,0,34,1.344254926518,34,3L34,70.8C34,72.45574507348199,32.655745073482,73.8,31,73.8L0,73.8C0,73.8,0,73.8,0,73.8L0,0C0,0,0,0,0,0Z"/></clipPath><clipPath id="clip22"><path d="M0,0L654.3333333333334,0C655.9890784068153,0,657.3333333333334,1.344254926518,657.3333333333334,3L657.3333333333334,70.8C657.3333333333334,72.45574507348199,655.9890784068153,73.8,654.3333333333334,73.8L0,73.8C0,73.8,0,73.8,0,73.8L0,0C0,0,0,0,0,0Z"/></clipPath><clipPath id="clip23"><path d="M0,0L359.6666666666667,0C361.3224117401487,0,362.6666666666667,1.344254926518,362.6666666666667,3L362.6666666666667,70.8C362.6666666666667,72.45574507348199,361.3224117401487,73.8,359.6666666666667,73.8L0,73.8C0,73.8,0,73.8,0,73.8L0,0C0,0,0,0,0,0Z"/></clipPath><clipPath id="clip24"><path d="M0,0L223.66666666666666,0C225.32241174014865,0,226.66666666666666,1.344254926518,226.66666666666666,3L226.66666666666666,70.8C226.66666666666666,72.45574507348199,225.32241174014865,73.8,223.66666666666666,73.8L0,73.8C0,73.8,0,73.8,0,73.8L0,0C0,0,0,0,0,0Z"/></clipPath></defs></svg>