<svg xmlns="http://www.w3.org/2000/svg" xmlns:xlink="http://www.w3.org/1999/xlink" version="1.1" class="marks" width="776" height="470" viewBox="0 0 776 470"><g fill="none" stroke-miterlimit="10" transform="translate(91,23)"><g class="mark-group role-frame root" role="graphics-object" aria-roledescription="group mark container"><g transform="translate(0,0)"><path class="background" aria-hidden="true" d="M0,0h680v410h-680Z"/><g><g class="mark-group role-axis" role="graphics-symbol" aria-roledescription="axis" aria-label="X-axis titled '₹' for a linear scale with values from 0k to 45k"><g transform="translate(0.5,410.5)"><path class="background" aria-hidden="true" d="M0,0h0v0h0Z" pointer-events="none"/><g><g class="mark-rule role-axis-tick" pointer-events="none"><line transform="translate(0,0)" x2="0" y2="5" stroke="#888" stroke-width="1" opacity="1"/><line transform="translate(30,0)" x2="0" y2="5" stroke="#888" stroke-width="1" opacity="1"/><line transform="translate(60,0)" x2="0" y2="5" stroke="#888" stroke-width="1" opacity="1"/><line transform="translate(91,0)" x2="0" y2="5" stroke="#888" stroke-width="1" opacity="1"/><line transform="translate(121,0)" x2="0" y2="5" stroke="#888" stroke-width="1" opacity="1"/><line transform="translate(151,0)" x2="0" y2="5" stroke="#888" stroke-width="1" opacity="1"/><line transform="translate(181,0)" x2="0" y2="5" stroke="#888" stroke-width="1" opacity="1"/><line transform="translate(212,0)" x2="0" y2="5" stroke="#888" stroke-width="1" opacity="1"/><line transform="translate(242,0)" x2="0" y2="5" stroke="#888" stroke-width="1" opacity="1"/><line transform="translate(272,0)" x2="0" y2="5" stroke="#888" stroke-width="1" opacity="1"/><line transform="translate(302,0)" x2="0" y2="5" stroke="#888" stroke-width="1" opacity="1"/><line transform="translate(332,0)" x2="0" y2="5" stroke="#888" stroke-width="1" opacity="1"/><line transform="translate(363,0)" x2="0" y2="5" stroke="#888" stroke-width="1" opacity="1"/><line transform="translate(393,0)" x2="0" y2="5" stroke="#888" stroke-width="1" opacity="1"/><line transform="translate(423,0)" x2="0" y2="5" stroke="#888" stroke-width="1" opacity="1"/><line transform="translate(453,0)" x2="0" y2="5" stroke="#888" stroke-width="1" opacity="1"/><line transform="translate(484,0)" x2="0" y2="5" stroke="#888" stroke-width="1" opacity="1"/><line transform="translate(514,0)" x2="0" y2="5" stroke="#888" stroke-width="1" opacity="1"/><line transform="translate(544,0)" x2="0" y2="5" stroke="#888" stroke-width="1" opacity="1"/><line transform="translate(574,0)" x2="0" y2="5" stroke="#888" stroke-width="1" opacity="1"/><line transform="translate(604,0)" x2="0" y2="5" stroke="#888" stroke-width="1" opacity="1"/><line transform="translate(635,0)" x2="0" y2="5" stroke="#888" stroke-width="1" opacity="1"/><line transform="translate(665,0)" x2="0" y2="5" stroke="#888" stroke-width="1" opacity="1"/></g><g class="mark-text role-axis-label" pointer-events="none"><text text-anchor="start" transform="translate(0,15)" font-family="sans-serif" font-size="10px" fill="#000" opacity="1">0k</text><text text-anchor="middle" transform="translate(30.222222222222225,15)" font-family="sans-serif" font-size="10px" fill="#000" opacity="1">2k</text><text text-anchor="middle" transform="translate(60.44444444444445,15)" font-family="sans-serif" font-size="10px" fill="#000" opacity="1">4k</text><text text-anchor="middle" transform="translate(90.66666666666667,15)" font-family="sans-serif" font-size="10px" fill="#000" opacity="1">6k</text><text text-anchor="middle" transform="translate(120.8888888888889,15)" font-family="sans-serif" font-size="10px" fill="#000" opacity="1">8k</text><text text-anchor="middle" transform="translate(151.11111111111111,15)" font-family="sans-serif" font-size="10px" fill="#000" opacity="1">10k</text><text text-anchor="middle" transform="translate(181.33333333333334,15)" font-family="sans-serif" font-size="10px" fill="#000" opacity="1">12k</text><text text-anchor="middle" transform="translate(211.55555555555557,15)" font-family="sans-serif" font-size="10px" fill="#000" opacity="1">14k</text><text text-anchor="middle" transform="translate(241.7777777777778,15)" font-family="sans-serif" font-size="10px" fill="#000" opacity="1">16k</text><text text-anchor="middle" transform="translate(272,15)" font-family="sans-serif" font-size="10px" fill="#000" opacity="1">18k</text><text text-anchor="middle" transform="translate(302.22222222222223,15)" font-family="sans-serif" font-size="10px" fill="#000" opacity="1">20k</text><text text-anchor="middle" transform="translate(332.44444444444446,15)" font-family="sans-serif" font-size="10px" fill="#000" opacity="1">22k</text><text text-anchor="middle" transform="translate(362.6666666666667,15)" font-family="sans-serif" font-size="10px" fill="#000" opacity="1">24k</text><text text-anchor="middle" transform="translate(392.88888888888886,15)" font-family="sans-serif" font-size="10px" fill="#000" opacity="1">26k</text><text text-anchor="middle" transform="translate(423.11111111111114,15)" font-family="sans-serif" font-size="10px" fill="#000" opacity="1">28k</text><text text-anchor="middle" transform="translate(453.3333333333333,15)" font-family="sans-serif" font-size="10px" fill="#000" opacity="1">30k</text><text text-anchor="middle" transform="translate(483.5555555555556,15)" font-family="sans-serif" font-size="10px" fill="#000" opacity="1">32k</text><text text-anchor="middle" transform="translate(513.7777777777777,15)" font-family="sans-serif" font-size="10px" fill="#000" opacity="1">34k</text><text text-anchor="middle" transform="translate(544,15)" font-family="sans-serif" font-size="10px" fill="#000" opacity="1">36k</text><text text-anchor="middle" transform="translate(574.2222222222222,15)" font-family="sans-serif" font-size="10px" fill="#000" opacity="1">38k</text><text text-anchor="middle" transform="translate(604.4444444444445,15)" font-family="sans-serif" font-size="10px" fill="#000" opacity="1">40k</text><text text-anchor="middle" transform="translate(634.6666666666666,15)" font-family="sans-serif" font-size="10px" fill="#000" opacity="1">42k</text><text text-anchor="middle" transform="translate(664.8888888888889,15)" font-family="sans-serif" font-size="10px" fill="#000" opacity="1">44k</text></g><g class="mark-rule role-axis-domain" pointer-events="none"><line transform="translate(0,0)" x2="680" y2="0" stroke="#888" stroke-width="1" opacity="1"/></g><g class="mark-text role-axis-title" pointer-events="none"><text text-anchor="middle" transform="translate(340,30)" font-family="sans-serif" font-size="11px" font-weight="bold" fill="#000" opacity="1">₹</text></g></g><path class="foreground" aria-hidden="true" d="" pointer-events="none" display="none"/></g></g><g class="mark-group role-axis" role="graphics-symbol" aria-roledescription="axis" aria-label="Y-axis for a discrete scale with 8 values: ₹1,000 crore, ₹1,322 crore, ₹980 crore, ₹500 crore, ₹480 crore, ending with ₹40,000 crore"><g transform="translate(0.5,0.5)"><path class="background" aria-hidden="true" d="M0,0h0v0h0Z" pointer-events="none"/><g><g class="mark-rule role-axis-tick" pointer-events="none"><line transform="translate(0,25)" x2="-5" y2="0" stroke="#888" stroke-width="1" opacity="1"/><line transform="translate(0,76)" x2="-5" y2="0" stroke="#888" stroke-width="1" opacity="1"/><line transform="translate(0,128)" x2="-5" y2="0" stroke="#888" stroke-width="1" opacity="1"/><line transform="translate(0,179)" x2="-5" y2="0" stroke="#888" stroke-width="1" opacity="1"/><line transform="translate(0,230)" x2="-5" y2="0" stroke="#888" stroke-width="1" opacity="1"/><line transform="translate(0,281)" x2="-5" y2="0" stroke="#888" stroke-width="1" opacity="1"/><line transform="translate(0,333)" x2="-5" y2="0" stroke="#888" stroke-width="1" opacity="1"/><line transform="translate(0,384)" x2="-5" y2="0" stroke="#888" stroke-width="1" opacity="1"/></g><g class="mark-text role-axis-label" pointer-events="none"><text text-anchor="end" transform="translate(-7,28.125)" font-family="sans-serif" font-size="10px" fill="#000" opacity="1">₹1,000 crore</text><text text-anchor="end" transform="translate(-7,79.375)" font-family="sans-serif" font-size="10px" fill="#000" opacity="1">₹1,322 crore</text><text text-anchor="end" transform="translate(-7,130.625)" font-family="sans-serif" font-size="10px" fill="#000" opacity="1">₹980 crore</text><text text-anchor="end" transform="translate(-7,181.875)" font-family="sans-serif" font-size="10px" fill="#000" opacity="1">₹500 crore</text><text text-anchor="end" transform="translate(-7,233.125)" font-family="sans-serif" font-size="10px" fill="#000" opacity="1">₹480 crore</text><text text-anchor="end" transform="translate(-7,284.375)" font-family="sans-serif" font-size="10px" fill="#000" opacity="1">₹40,562 crore</text><text text-anchor="end" transform="translate(-7,335.625)" font-family="sans-serif" font-size="10px" fill="#000" opacity="1">₹31.79 crore</text><text text-anchor="end" transform="translate(-7,386.875)" font-family="sans-serif" font-size="10px" fill="#000" opacity="1">₹40,000 crore</text></g><g class="mark-rule role-axis-domain" pointer-events="none"><line transform="translate(0,0)" x2="0" y2="410" stroke="#888" stroke-width="1" opacity="1"/></g></g><path class="foreground" aria-hidden="true" d="" pointer-events="none" display="none"/></g></g><g class="mark-group role-scope" role="graphics-object" aria-roledescription="group mark container"><g transform="translate(0,2.5625)"><path class="background" aria-hidden="true" d="M0,0L12.111111111111112,0C13.766856184593113,0,15.111111111111112,1.344254926518,15.111111111111112,3L15.111111111111112,43.125C15.111111111111112,44.780745073482,13.766856184593113,46.125,12.111111111111112,46.125L0,46.125C0,46.125,0,46.125,0,46.125L0,0C0,0,0,0,0,0Z"/><g clip-path="url(#clip12)"><g class="mark-group role-scope" role="graphics-object" aria-roledescription="group mark container"><g transform="translate(0,0)"><path class="background" aria-hidden="true" d="M0,0h0v46.125h0Z"/><g><g class="mark-rect role-mark marks" role="graphics-object" aria-roledescription="rect mark container"><path aria-label="value: 1k; label: ₹1,000 crore" role="graphics-symbol" aria-roledescription="bar" d="M0,0h15.111111111111112v46.125h-15.111111111111112Z" fill="#4c6ef5"/></g></g><path class="foreground" aria-hidden="true" d="" display="none"/></g></g></g><path class="foreground" aria-hidden="true" d="" display="none"/></g><g transform="translate(0,53.8125)"><path class="background" aria-hidden="true" d="M0,0L16.976888888888887,0C18.632633962370885,0,19.976888888888887,1.344254926518,19.976888888888887,3L19.976888888888887,43.125C19.976888888888887,44.780745073482,18.632633962370885,46.125,16.976888888888887,46.125L0,46.125C0,46.125,0,46.125,0,46.125L0,0C0,0,0,0,0,0Z"/><g clip-path="url(#clip13)"><g class="mark-group role-scope" role="graphics-object" aria-roledescription="group mark container"><g transform="translate(0,0)"><path class="background" aria-hidden="true" d="M0,0h0v46.125h0Z"/><g><g class="mark-rect role-mark marks" role="graphics-object" aria-roledescription="rect mark container"><path aria-label="value: 1.322k; label: ₹1,322 crore" role="graphics-symbol" aria-roledescription="bar" d="M0,0h19.976888888888887v46.125h-19.976888888888887Z" fill="#4c6ef5"/></g></g><path class="foreground" aria-hidden="true" d="" display="none"/></g></g></g><path class="foreground" aria-hidden="true" d="" display="none"/></g><g transform="translate(0,105.0625)"><path class="background" aria-hidden="true" d="M0,0L11.80888888888889,0C13.46463396237089,0,14.80888888888889,1.344254926518,14.80888888888889,3L14.80888888888889,43.125C14.80888888888889,44.780745073482,13.46463396237089,46.125,11.80888888888889,46.125L0,46.125C0,46.125,0,46.125,0,46.125L0,0C0,0,0,0,0,0Z"/><g clip-path="url(#clip14)"><g class="mark-group role-scope" role="graphics-object" aria-roledescription="group mark container"><g transform="translate(0,0)"><path class="background" aria-hidden="true" d="M0,0h0v46.125h0Z"/><g><g class="mark-rect role-mark marks" role="graphics-object" aria-roledescription="rect mark container"><path aria-label="value: 980; label: ₹980 crore" role="graphics-symbol" aria-roledescription="bar" d="M0,0h14.80888888888889v46.125h-14.80888888888889Z" fill="#4c6ef5"/></g></g><path class="foreground" aria-hidden="true" d="" display="none"/></g></g></g><path class="foreground" aria-hidden="true" d="" display="none"/></g><g transform="translate(0,156.3125)"><path class="background" aria-hidden="true" d="M0,0L4.555555555555556,0C6.211300629037556,0,7.555555555555556,1.344254926518,7.555555555555556,3L7.555555555555556,43.125C7.555555555555556,44.780745073482,6.211300629037556,46.125,4.555555555555556,46.125L0,46.125C0,46.125,0,46.125,0,46.125L0,0C0,0,0,0,0,0Z"/><g clip-path="url(#clip15)"><g class="mark-group role-scope" role="graphics-object" aria-roledescription="group mark container"><g transform="translate(0,0)"><path class="background" aria-hidden="true" d="M0,0h0v46.125h0Z"/><g><g class="mark-rect role-mark marks" role="graphics-object" aria-roledescription="rect mark container"><path aria-label="value: 500; label: ₹500 crore" role="graphics-symbol" aria-roledescription="bar" d="M0,0h7.555555555555556v46.125h-7.555555555555556Z" fill="#4c6ef5"/></g></g><path class="foreground" aria-hidden="true" d="" display="none"/></g></g></g><path class="foreground" aria-hidden="true" d="" display="none"/></g><g transform="translate(0,207.5625)"><path class="background" aria-hidden="true" d="M0,0L4.253333333333333,0C5.909078406815333,0,7.253333333333333,1.344254926518,7.253333333333333,3L7.253333333333333,43.125C7.253333333333333,44.780745073482,5.909078406815333,46.125,4.253333333333333,46.125L0,46.125C0,46.125,0,46.125,0,46.125L0,0C0,0,0,0,0,0Z"/><g clip-path="url(#clip16)"><g class="mark-group role-scope" role="graphics-object" aria-roledescription="group mark container"><g transform="translate(0,0)"><path class="background" aria-hidden="true" d="M0,0h0v46.125h0Z"/><g><g class="mark-rect role-mark marks" role="graphics-object" aria-roledescription="rect mark container"><path aria-label="value: 480; label: ₹480 crore" role="graphics-symbol" aria-roledescription="bar" d="M0,0h7.253333333333333v46.125h-7.253333333333333Z" fill="#4c6ef5"/></g></g><path class="foreground" aria-hidden="true" d="" display="none"/></g></g></g><path class="foreground" aria-hidden="true" d="" display="none"/></g><g transform="translate(0,258.8125)"><path class="background" aria-hidden="true" d="M0,0L609.9368888888889,0C611.5926339623709,0,612.9368888888889,1.344254926518,612.9368888888889,3L612.9368888888889,43.125C612.9368888888889,44.780745073482,611.5926339623709,46.125,609.9368888888889,46.125L0,46.125C0,46.125,0,46.125,0,46.125L0,0C0,0,0,0,0,0Z"/><g clip-path="url(#clip17)"><g class="mark-group role-scope" role="graphics-object" aria-roledescription="group mark container"><g transform="translate(0,0)"><path class="background" aria-hidden="true" d="M0,0h0v46.125h0Z"/><g><g class="mark-rect role-mark marks" role="graphics-object" aria-roledescription="rect mark container"><path aria-label="value: 40.562k; label: ₹40,562 crore" role="graphics-symbol" aria-roledescription="bar" d="M0,0h612.9368888888889v46.125h-612.9368888888889Z" fill="#4c6ef5"/></g></g><path class="foreground" aria-hidden="true" d="" display="none"/></g></g></g><path class="foreground" aria-hidden="true" d="" display="none"/></g><g transform="translate(0,310.0625)"><path class="background" aria-hidden="true" d="M0,0L0.2401911111111111,0C0.37275619408324107,0,0.4803822222222222,0.10762602813898114,0.4803822222222222,0.2401911111111111L0.4803822222222222,45.88480888888889C0.4803822222222222,46.01737397186102,0.37275619408324107,46.125,0.2401911111111111,46.125L0,46.125C0,46.125,0,46.125,0,46.125L0,0C0,0,0,0,0,0Z"/><g clip-path="url(#clip18)"><g class="mark-group role-scope" role="graphics-object" aria-roledescription="group mark container"><g transform="translate(0,0)"><path class="background" aria-hidden="true" d="M0,0h0v46.125h0Z"/><g><g class="mark-rect role-mark marks" role="graphics-object" aria-roledescription="rect mark container"><path aria-label="value: 31.79; label: ₹31.79 crore" role="graphics-symbol" aria-roledescription="bar" d="M0,0h0.4803822222222222v46.125h-0.4803822222222222Z" fill="#4c6ef5"/></g></g><path class="foreground" aria-hidden="true" d="" display="none"/></g></g></g><path class="foreground" aria-hidden="true" d="" display="none"/></g><g transform="translate(0,361.3125)"><path class="background" aria-hidden="true" d="M0,0L601.4444444444445,0C603.1001895179264,0,604.4444444444445,1.344254926518,604.4444444444445,3L604.4444444444445,43.125C604.4444444444445,44.780745073482,603.1001895179264,46.125,601.4444444444445,46.125L0,46.125C0,46.125,0,46.125,0,46.125L0,0C0,0,0,0,0,0Z"/><g clip-path="url(#clip19)"><g class="mark-group role-scope" role="graphics-object" aria-roledescription="group mark container"><g transform="translate(0,0)"><path class="background" aria-hidden="true" d="M0,0h0v46.125h0Z"/><g><g class="mark-rect role-mark marks" role="graphics-object" aria-roledescription="rect mark container"><path aria-label="value: 40k; label: ₹40,000 crore" role="graphics-symbol" aria-roledescription="bar" d="M0,0h604.4444444444445v46.125h-604.4444444444445Z" fill="#4c6ef5"/></g></g><path class="foreground" aria-hidden="true" d="" display="none"/></g></g></g><path class="foreground" aria-hidden="true" d="" display="none"/></g></g><g class="mark-group role-title"><g transform="translate(-85.4716796875,-18)"><path class="background" aria-hidden="true" d="M0,0h0v0h0Z" pointer-events="none"/><g><g class="mark-text role-title-text" role="graphics-symbol" aria-roledescription="title" aria-label="Title text 'Loan amounts and net worth claims'" pointer-events="none"><text text-anchor="start" transform="translate(0,11)" font-family="sans-serif" font-size="14px" font-weight="bold" fill="#000" opacity="1">Loan amounts and net worth claims</text></g></g><path class="foreground" aria-hidden="true" d="" pointer-events="none" display="none"/></g></g></g><path class="foreground" aria-hidden="true" d="" display="none"/></g></g></g><defs><clipPath id="clip12"><path d="M0,0L12.111111111111112,0C13.766856184593113,0,15.111111111111112,1.344254926518,15.111111111111112,3L15.111111111111112,43.125C15.111111111111112,44.780745073482,13.766856184593113,46.125,12.111111111111112,46.125L0,46.125C0,46.125,0,46.125,0,46.125L0,0C0,0,0,0,0,0Z"/></clipPath><clipPath id="clip13"><path d="M0,0L16.976888888888887,0C18.632633962370885,0,19.976888888888887,1.344254926518,19.976888888888887,3L19.976888888888887,43.125C19.976888888888887,44.780745073482,18.632633962370885,46.125,16.976888888888887,46.125L0,46.125C0,46.125,0,46.125,0,46.125L0,0C0,0,0,0,0,0Z"/></clipPath><clipPath id="clip14"><path d="M0,0L11.80888888888889,0C13.46463396237089,0,14.80888888888889,1.344254926518,14.80888888888889,3L14.80888888888889,43.125C14.80888888888889,44.780745073482,13.46463396237089,46.125,11.80888888888889,46.125L0,46.125C0,46.125,0,46.125,0,46.125L0,0C0,0,0,0,0,0Z"/></clipPath><clipPath id="clip15"><path d="M0,0L4.555555555555556,0C6.211300629037556,0,7.555555555555556,1.344254926518,7.555555555555556,3L7.555555555555556,43.125C7.555555555555556,44.780745073482,6.211300629037556,46.125,4.555555555555556,46.125L0,46.125C0,46.125,0,46.125,0,46.125L0,0C0,0,0,0,0,0Z"/></clipPath><clipPath id="clip16"><path d="M0,0L4.253333333333333,0C5.909078406815333,0,7.253333333333333,1.344254926518,7.253333333333333,3L7.253333333333333,43.125C7.253333333333333,44.780745073482,5.909078406815333,46.125,4.253333333333333,46.125L0,46.125C0,46.125,0,46.125,0,46.125L0,0C0,0,0,0,0,0Z"/></clipPath><clipPath id="clip17"><path d="M0,0L609.9368888888889,0C611.5926339623709,0,612.9368888888889,1.344254926518,612.9368888888889,3L612.9368888888889,43.125C612.9368888888889,44.780745073482,611.5926339623709,46.125,609.9368888888889,46.125L0,46.125C0,46.125,0,46.125,0,46.125L0,0C0,0,0,0,0,0Z"/></clipPath><clipPath id="clip18"><path d="M0,0L0.2401911111111111,0C0.37275619408324107,0,0.4803822222222222,0.10762602813898114,0.4803822222222222,0.2401911111111111L0.4803822222222222,45.88480888888889C0.4803822222222222,46.01737397186102,0.37275619408324107,46.125,0.2401911111111111,46.125L0,46.125C0,46.125,0,46.125,0,46.125L0,0C0,0,0,0,0,0Z"/></clipPath><clipPath id="clip19"><path d="M0,0L601.4444444444445,0C603.1001895179264,0,604.4444444444445,1.344254926518,604.4444444444445,3L604.4444444444445,43.125C604.4444444444445,44.780745073482,603.1001895179264,46.125,601.4444444444445,46.125L0,46.125C0,46.125,0,46.125,0,46.125L0,0C0,0,0,0,0,0Z"/></clipPath></defs></svg>