<svg xmlns="http://www.w3.org/2000/svg" xmlns:xlink="http://www.w3.org/1999/xlink" version="1.1" class="marks" width="721" height="470" viewBox="0 0 721 470"><g fill="none" stroke-miterlimit="10" transform="translate(35,23)"><g class="mark-group role-frame root" role="graphics-object" aria-roledescription="group mark container"><g transform="translate(0,0)"><path class="background" aria-hidden="true" d="M0,0h680v410h-680Z"/><g><g class="mark-group role-axis" role="graphics-symbol" aria-roledescription="axis" aria-label="X-axis titled '%' for a linear scale with values from 0 to 90"><g transform="translate(0.5,410.5)"><path class="background" aria-hidden="true" d="M0,0h0v0h0Z" pointer-events="none"/><g><g class="mark-rule role-axis-tick" pointer-events="none"><line transform="translate(0,0)" x2="0" y2="5" stroke="#888" stroke-width="1" opacity="1"/><line transform="translate(38,0)" x2="0" y2="5" stroke="#888" stroke-width="1" opacity="1"/><line transform="translate(76,0)" x2="0" y2="5" stroke="#888" stroke-width="1" opacity="1"/><line transform="translate(113,0)" x2="0" y2="5" stroke="#888" stroke-width="1" opacity="1"/><line transform="translate(151,0)" x2="0" y2="5" stroke="#888" stroke-width="1" opacity="1"/><line transform="translate(189,0)" x2="0" y2="5" stroke="#888" stroke-width="1" opacity="1"/><line transform="translate(227,0)" x2="0" y2="5" stroke="#888" stroke-width="1" opacity="1"/><line transform="translate(264,0)" x2="0" y2="5" stroke="#888" stroke-width="1" opacity="1"/><line transform="translate(302,0)" x2="0" y2="5" stroke="#888" stroke-width="1" opacity="1"/><line transform="translate(340,0)" x2="0" y2="5" stroke="#888" stroke-width="1" opacity="1"/><line transform="translate(378,0)" x2="0" y2="5" stroke="#888" stroke-width="1" opacity="1"/><line transform="translate(416,0)" x2="0" y2="5" stroke="#888" stroke-width="1" opacity="1"/><line transform="translate(453,0)" x2="0" y2="5" stroke="#888" stroke-width="1" opacity="1"/><line transform="translate(491,0)" x2="0" y2="5" stroke="#888" stroke-width="1" opacity="1"/><line transform="translate(529,0)" x2="0" y2="5" stroke="#888" stroke-width="1" opacity="1"/><line transform="translate(567,0)" x2="0" y2="5" stroke="#888" stroke-width="1" opacity="1"/><line transform="translate(604,0)" x2="0" y2="5" stroke="#888" stroke-width="1" opacity="1"/><line transform="translate(642,0)" x2="0" y2="5" stroke="#888" stroke-width="1" opacity="1"/><line transform="translate(680,0)" x2="0" y2="5" stroke="#888" stroke-width="1" opacity="1"/></g><g class="mark-text role-axis-label" pointer-events="none"><text text-anchor="start" transform="translate(0,15)" font-family="sans-serif" font-size="10px" fill="#000" opacity="1">0</text><text text-anchor="middle" transform="translate(37.77777777777778,15)" font-family="sans-serif" font-size="10px" fill="#000" opacity="1">5</text><text text-anchor="middle" transform="translate(75.55555555555556,15)" font-family="sans-serif" font-size="10px" fill="#000" opacity="1">10</text><text text-anchor="middle" transform="translate(113.33333333333333,15)" font-family="sans-serif" font-size="10px" fill="#000" opacity="1">15</text><text text-anchor="middle" transform="translate(151.11111111111111,15)" font-family="sans-serif" font-size="10px" fill="#000" opacity="1">20</text><text text-anchor="middle" transform="translate(188.88888888888889,15)" font-family="sans-serif" font-size="10px" fill="#000" opacity="1">25</text><text text-anchor="middle" transform="translate(226.66666666666666,15)" font-family="sans-serif" font-size="10px" fill="#000" opacity="1">30</text><text text-anchor="middle" transform="translate(264.44444444444446,15)" font-family="sans-serif" font-size="10px" fill="#000" opacity="1">35</text><text text-anchor="middle" transform="translate(302.22222222222223,15)" font-family="sans-serif" font-size="10px" fill="#000" opacity="1">40</text><text text-anchor="middle" transform="translate(340,15)" font-family="sans-serif" font-size="10px" fill="#000" opacity="1">45</text><text text-anchor="middle" transform="translate(377.77777777777777,15)" font-family="sans-serif" font-size="10px" fill="#000" opacity="1">50</text><text text-anchor="middle" transform="translate(415.5555555555556,15)" font-family="sans-serif" font-size="10px" fill="#000" opacity="1">55</text><text text-anchor="middle" transform="translate(453.3333333333333,15)" font-family="sans-serif" font-size="10px" fill="#000" opacity="1">60</text><text text-anchor="middle" transform="translate(491.1111111111111,15)" font-family="sans-serif" font-size="10px" fill="#000" opacity="1">65</text><text text-anchor="middle" transform="translate(528.8888888888889,15)" font-family="sans-serif" font-size="10px" fill="#000" opacity="1">70</text><text text-anchor="middle" transform="translate(566.6666666666667,15)" font-family="sans-serif" font-size="10px" fill="#000" opacity="1">75</text><text text-anchor="middle" transform="translate(604.4444444444445,15)" font-family="sans-serif" font-size="10px" fill="#000" opacity="1">80</text><text text-anchor="middle" transform="translate(642.2222222222222,15)" font-family="sans-serif" font-size="10px" fill="#000" opacity="1">85</text><text text-anchor="end" transform="translate(680,15)" font-family="sans-serif" font-size="10px" fill="#000" opacity="1">90</text></g><g class="mark-rule role-axis-domain" pointer-events="none"><line transform="translate(0,0)" x2="680" y2="0" stroke="#888" stroke-width="1" opacity="1"/></g><g class="mark-text role-axis-title" pointer-events="none"><text text-anchor="middle" transform="translate(340,30)" font-family="sans-serif" font-size="11px" font-weight="bold" fill="#000" opacity="1">%</text></g></g><path class="foreground" aria-hidden="true" d="" pointer-events="none" display="none"/></g></g><g class="mark-group role-axis" role="graphics-symbol" aria-roledescription="axis" aria-label="Y-axis for a discrete scale with 3 values: 2025, 2026, 2028"><g transform="translate(0.5,0.5)"><path class="background" aria-hidden="true" d="M0,0h0v0h0Z" pointer-events="none"/><g><g class="mark-rule role-axis-tick" pointer-events="none"><line transform="translate(0,68)" x2="-5" y2="0" stroke="#888" stroke-width="1" opacity="1"/><line transform="translate(0,205)" x2="-5" y2="0" stroke="#888" stroke-width="1" opacity="1"/><line transform="translate(0,341)" x2="-5" y2="0" stroke="#888" stroke-width="1" opacity="1"/></g><g class="mark-text role-axis-label" pointer-events="none"><text text-anchor="end" transform="translate(-7,70.83333333333334)" font-family="sans-serif" font-size="10px" fill="#000" opacity="1">2025</text><text text-anchor="end" transform="translate(-7,207.5)" font-family="sans-serif" font-size="10px" fill="#000" opacity="1">2026</text><text text-anchor="end" transform="translate(-7,344.16666666666663)" font-family="sans-serif" font-size="10px" fill="#000" opacity="1">2028</text></g><g class="mark-rule role-axis-domain" pointer-events="none"><line transform="translate(0,0)" x2="0" y2="410" stroke="#888" stroke-width="1" opacity="1"/></g></g><path class="foreground" aria-hidden="true" d="" pointer-events="none" display="none"/></g></g><g class="mark-group role-scope" role="graphics-object" aria-roledescription="group mark container"><g transform="translate(0,6.833333333333343)"><path class="background" aria-hidden="true" d="M0,0L674.7333333333333,0C676.3890784068153,0,677.7333333333333,1.344254926518,677.7333333333333,3L677.7333333333333,120C677.7333333333333,121.655745073482,676.3890784068153,123,674.7333333333333,123L0,123C0,123,0,123,0,123L0,0C0,0,0,0,0,0Z"/><g clip-path="url(#clip1)"><g class="mark-group role-scope" role="graphics-object" aria-roledescription="group mark container"><g transform="translate(0,0)"><path class="background" aria-hidden="true" d="M0,0h0v123h0Z"/><g><g class="mark-rect role-mark marks" role="graphics-object" aria-roledescription="rect mark container"><path aria-label="value: 89.7; label: 2025" role="graphics-symbol" aria-roledescription="bar" d="M0,0h677.7333333333333v123h-677.7333333333333Z" fill="#4c6ef5"/></g></g><path class="foreground" aria-hidden="true" d="" display="none"/></g></g></g><path class="foreground" aria-hidden="true" d="" display="none"/></g><g transform="translate(0,143.5)"><path class="background" aria-hidden="true" d="M0,0L654.3333333333334,0C655.9890784068153,0,657.3333333333334,1.344254926518,657.3333333333334,3L657.3333333333334,120C657.3333333333334,121.655745073482,655.9890784068153,123,654.3333333333334,123L0,123C0,123,0,123,0,123L0,0C0,0,0,0,0,0Z"/><g clip-path="url(#clip2)"><g class="mark-group role-scope" role="graphics-object" aria-roledescription="group mark container"><g transform="translate(0,0)"><path class="background" aria-hidden="true" d="M0,0h0v123h0Z"/><g><g class="mark-rect role-mark marks" role="graphics-object" aria-roledescription="rect mark container"><path aria-label="value: 87; label: 2026" role="graphics-symbol" aria-roledescription="bar" d="M0,0h657.3333333333334v123h-657.3333333333334Z" fill="#4c6ef5"/></g></g><path class="foreground" aria-hidden="true" d="" display="none"/></g></g></g><path class="foreground" aria-hidden="true" d="" display="none"/></g><g transform="translate(0,280.16666666666663)"><path class="background" aria-hidden="true" d="M0,0L623.3555555555556,0C625.0113006290376,0,626.3555555555556,1.344254926518,626.3555555555556,3L626.3555555555556,120C626.3555555555556,121.655745073482,625.0113006290376,123,623.3555555555556,123L0,123C0,123,0,123,0,123L0,0C0,0,0,0,0,0Z"/><g clip-path="url(#clip3)"><g class="mark-group role-scope" role="graphics-object" aria-roledescription="group mark container"><g transform="translate(0,0)"><path class="background" aria-hidden="true" d="M0,0h0v123h0Z"/><g><g class="mark-rect role-mark marks" role="graphics-object" aria-roledescription="rect mark container"><path aria-label="value: 82.9; label: 2028" role="graphics-symbol" aria-roledescription="bar" d="M0,0h626.3555555555556v123h-626.3555555555556Z" fill="#4c6ef5"/></g></g><path class="foreground" aria-hidden="true" d="" display="none"/></g></g></g><path class="foreground" aria-hidden="true" d="" display="none"/></g></g><g class="mark-group role-title"><g transform="translate(-29.24609375,-18)"><path class="background" aria-hidden="true" d="M0,0h0v0h0Z" pointer-events="none"/><g><g class="mark-text role-title-text" role="graphics-symbol" aria-roledescription="title" aria-label="Title text 'Public Debt Forecast'" pointer-events="none"><text text-anchor="start" transform="translate(0,11)" font-family="sans-serif" font-size="14px" font-weight="bold" fill="#000" opacity="1">Public Debt Forecast</text></g></g><path class="foreground" aria-hidden="true" d="" pointer-events="none" display="none"/></g></g></g><path class="foreground" aria-hidden="true" d="" display="none"/></g></g></g><defs><clipPath id="clip1"><path d="M0,0L674.7333333333333,0C676.3890784068153,0,677.7333333333333,1.344254926518,677.7333333333333,3L677.7333333333333,120C677.7333333333333,121.655745073482,676.3890784068153,123,674.7333333333333,123L0,123C0,123,0,123,0,123L0,0C0,0,0,0,0,0Z"/></clipPath><clipPath id="clip2"><path d="M0,0L654.3333333333334,0C655.9890784068153,0,657.3333333333334,1.344254926518,657.3333333333334,3L657.3333333333334,120C657.3333333333334,121.655745073482,655.9890784068153,123,654.3333333333334,123L0,123C0,123,0,123,0,123L0,0C0,0,0,0,0,0Z"/></clipPath><clipPath id="clip3"><path d="M0,0L623.3555555555556,0C625.0113006290376,0,626.3555555555556,1.344254926518,626.3555555555556,3L626.3555555555556,120C626.3555555555556,121.655745073482,625.0113006290376,123,623.3555555555556,123L0,123C0,123,0,123,0,123L0,0C0,0,0,0,0,0Z"/></clipPath></defs></svg>