<svg xmlns="http://www.w3.org/2000/svg" xmlns:xlink="http://www.w3.org/1999/xlink" version="1.1" class="marks" width="741" height="452" viewBox="0 0 741 452"><g fill="none" stroke-miterlimit="10" transform="translate(55,5)"><g class="mark-group role-frame root" role="graphics-object" aria-roledescription="group mark container"><g transform="translate(0,0)"><path class="background" aria-hidden="true" d="M0,0h680v410h-680Z"/><g><g class="mark-group role-axis" role="graphics-symbol" aria-roledescription="axis" aria-label="X-axis titled 'kwh' for a linear scale with values from 0 to 5"><g transform="translate(0.5,410.5)"><path class="background" aria-hidden="true" d="M0,0h0v0h0Z" pointer-events="none"/><g><g class="mark-rule role-axis-tick" pointer-events="none"><line transform="translate(0,0)" x2="0" y2="5" stroke="#888" stroke-width="1" opacity="1"/><line transform="translate(27,0)" x2="0" y2="5" stroke="#888" stroke-width="1" opacity="1"/><line transform="translate(54,0)" x2="0" y2="5" stroke="#888" stroke-width="1" opacity="1"/><line transform="translate(82,0)" x2="0" y2="5" stroke="#888" stroke-width="1" opacity="1"/><line transform="translate(109,0)" x2="0" y2="5" stroke="#888" stroke-width="1" opacity="1"/><line transform="translate(136,0)" x2="0" y2="5" stroke="#888" stroke-width="1" opacity="1"/><line transform="translate(163,0)" x2="0" y2="5" stroke="#888" stroke-width="1" opacity="1"/><line transform="translate(190,0)" x2="0" y2="5" stroke="#888" stroke-width="1" opacity="1"/><line transform="translate(218,0)" x2="0" y2="5" stroke="#888" stroke-width="1" opacity="1"/><line transform="translate(245,0)" x2="0" y2="5" stroke="#888" stroke-width="1" opacity="1"/><line transform="translate(272,0)" x2="0" y2="5" stroke="#888" stroke-width="1" opacity="1"/><line transform="translate(299,0)" x2="0" y2="5" stroke="#888" stroke-width="1" opacity="1"/><line transform="translate(326,0)" x2="0" y2="5" stroke="#888" stroke-width="1" opacity="1"/><line transform="translate(354,0)" x2="0" y2="5" stroke="#888" stroke-width="1" opacity="1"/><line transform="translate(381,0)" x2="0" y2="5" stroke="#888" stroke-width="1" opacity="1"/><line transform="translate(408,0)" x2="0" y2="5" stroke="#888" stroke-width="1" opacity="1"/><line transform="translate(435,0)" x2="0" y2="5" stroke="#888" stroke-width="1" opacity="1"/><line transform="translate(462,0)" x2="0" y2="5" stroke="#888" stroke-width="1" opacity="1"/><line transform="translate(490,0)" x2="0" y2="5" stroke="#888" stroke-width="1" opacity="1"/><line transform="translate(517,0)" x2="0" y2="5" stroke="#888" stroke-width="1" opacity="1"/><line transform="translate(544,0)" x2="0" y2="5" stroke="#888" stroke-width="1" opacity="1"/><line transform="translate(571,0)" x2="0" y2="5" stroke="#888" stroke-width="1" opacity="1"/><line transform="translate(598,0)" x2="0" y2="5" stroke="#888" stroke-width="1" opacity="1"/><line transform="translate(626,0)" x2="0" y2="5" stroke="#888" stroke-width="1" opacity="1"/><line transform="translate(653,0)" x2="0" y2="5" stroke="#888" stroke-width="1" opacity="1"/><line transform="translate(680,0)" x2="0" y2="5" stroke="#888" stroke-width="1" opacity="1"/></g><g class="mark-text role-axis-label" pointer-events="none"><text text-anchor="start" transform="translate(0,15)" font-family="sans-serif" font-size="10px" fill="#000" opacity="1">0</text><text text-anchor="middle" transform="translate(27.2,15)" font-family="sans-serif" font-size="10px" fill="#000" opacity="1">0.2</text><text text-anchor="middle" transform="translate(54.4,15)" font-family="sans-serif" font-size="10px" fill="#000" opacity="1">0.4</text><text text-anchor="middle" transform="translate(81.6,15)" font-family="sans-serif" font-size="10px" fill="#000" opacity="1">0.6</text><text text-anchor="middle" transform="translate(108.8,15)" font-family="sans-serif" font-size="10px" fill="#000" opacity="1">0.8</text><text text-anchor="middle" transform="translate(136,15)" font-family="sans-serif" font-size="10px" fill="#000" opacity="1">1</text><text text-anchor="middle" transform="translate(163.2,15)" font-family="sans-serif" font-size="10px" fill="#000" opacity="1">1.2</text><text text-anchor="middle" transform="translate(190.39999999999998,15)" font-family="sans-serif" font-size="10px" fill="#000" opacity="1">1.4</text><text text-anchor="middle" transform="translate(217.6,15)" font-family="sans-serif" font-size="10px" fill="#000" opacity="1">1.6</text><text text-anchor="middle" transform="translate(244.79999999999998,15)" font-family="sans-serif" font-size="10px" fill="#000" opacity="1">1.8</text><text text-anchor="middle" transform="translate(272,15)" font-family="sans-serif" font-size="10px" fill="#000" opacity="1">2</text><text text-anchor="middle" transform="translate(299.20000000000005,15)" font-family="sans-serif" font-size="10px" fill="#000" opacity="1">2.2</text><text text-anchor="middle" transform="translate(326.4,15)" font-family="sans-serif" font-size="10px" fill="#000" opacity="1">2.4</text><text text-anchor="middle" transform="translate(353.6,15)" font-family="sans-serif" font-size="10px" fill="#000" opacity="1">2.6</text><text text-anchor="middle" transform="translate(380.79999999999995,15)" font-family="sans-serif" font-size="10px" fill="#000" opacity="1">2.8</text><text text-anchor="middle" transform="translate(408,15)" font-family="sans-serif" font-size="10px" fill="#000" opacity="1">3</text><text text-anchor="middle" transform="translate(435.2,15)" font-family="sans-serif" font-size="10px" fill="#000" opacity="1">3.2</text><text text-anchor="middle" transform="translate(462.4,15)" font-family="sans-serif" font-size="10px" fill="#000" opacity="1">3.4</text><text text-anchor="middle" transform="translate(489.59999999999997,15)" font-family="sans-serif" font-size="10px" fill="#000" opacity="1">3.6</text><text text-anchor="middle" transform="translate(516.8,15)" font-family="sans-serif" font-size="10px" fill="#000" opacity="1">3.8</text><text text-anchor="middle" transform="translate(544,15)" font-family="sans-serif" font-size="10px" fill="#000" opacity="1">4</text><text text-anchor="middle" transform="translate(571.2,15)" font-family="sans-serif" font-size="10px" fill="#000" opacity="1">4.2</text><text text-anchor="middle" transform="translate(598.4000000000001,15)" font-family="sans-serif" font-size="10px" fill="#000" opacity="1">4.4</text><text text-anchor="middle" transform="translate(625.5999999999999,15)" font-family="sans-serif" font-size="10px" fill="#000" opacity="1">4.6</text><text text-anchor="middle" transform="translate(652.8,15)" font-family="sans-serif" font-size="10px" fill="#000" opacity="1">4.8</text><text text-anchor="end" transform="translate(680,15)" font-family="sans-serif" font-size="10px" fill="#000" opacity="1">5</text></g><g class="mark-rule role-axis-domain" pointer-events="none"><line transform="translate(0,0)" x2="680" y2="0" stroke="#888" stroke-width="1" opacity="1"/></g><g class="mark-text role-axis-title" pointer-events="none"><text text-anchor="middle" transform="translate(340,30)" font-family="sans-serif" font-size="11px" font-weight="bold" fill="#000" opacity="1">kwh</text></g></g><path class="foreground" aria-hidden="true" d="" pointer-events="none" display="none"/></g></g><g class="mark-group role-axis" role="graphics-symbol" aria-roledescription="axis" aria-label="Y-axis for a discrete scale with 4 values: 4 kWh, 4.23 kWh, 4.40 kWh, 4.75 kWh"><g transform="translate(0.5,0.5)"><path class="background" aria-hidden="true" d="M0,0h0v0h0Z" pointer-events="none"/><g><g class="mark-rule role-axis-tick" pointer-events="none"><line transform="translate(0,51)" x2="-5" y2="0" stroke="#888" stroke-width="1" opacity="1"/><line transform="translate(0,153)" x2="-5" y2="0" stroke="#888" stroke-width="1" opacity="1"/><line transform="translate(0,256)" x2="-5" y2="0" stroke="#888" stroke-width="1" opacity="1"/><line transform="translate(0,358)" x2="-5" y2="0" stroke="#888" stroke-width="1" opacity="1"/></g><g class="mark-text role-axis-label" pointer-events="none"><text text-anchor="end" transform="translate(-7,53.75)" font-family="sans-serif" font-size="10px" fill="#000" opacity="1">4 kWh</text><text text-anchor="end" transform="translate(-7,156.25)" font-family="sans-serif" font-size="10px" fill="#000" opacity="1">4.23 kWh</text><text text-anchor="end" transform="translate(-7,258.75)" font-family="sans-serif" font-size="10px" fill="#000" opacity="1">4.40 kWh</text><text text-anchor="end" transform="translate(-7,361.25)" font-family="sans-serif" font-size="10px" fill="#000" opacity="1">4.75 kWh</text></g><g class="mark-rule role-axis-domain" pointer-events="none"><line transform="translate(0,0)" x2="0" y2="410" stroke="#888" stroke-width="1" opacity="1"/></g></g><path class="foreground" aria-hidden="true" d="" pointer-events="none" display="none"/></g></g><g class="mark-group role-scope" role="graphics-object" aria-roledescription="group mark container"><g transform="translate(0,5.125)"><path class="background" aria-hidden="true" d="M0,0L541,0C542.655745073482,0,544,1.344254926518,544,3L544,89.25C544,90.905745073482,542.655745073482,92.25,541,92.25L0,92.25C0,92.25,0,92.25,0,92.25L0,0C0,0,0,0,0,0Z"/><g clip-path="url(#clip33)"><g class="mark-group role-scope" role="graphics-object" aria-roledescription="group mark container"><g transform="translate(0,0)"><path class="background" aria-hidden="true" d="M0,0h0v92.25h0Z"/><g><g class="mark-rect role-mark marks" role="graphics-object" aria-roledescription="rect mark container"><path aria-label="value: 4; label: 4 kWh" role="graphics-symbol" aria-roledescription="bar" d="M0,0h544v92.25h-544Z" fill="#4c6ef5"/></g></g><path class="foreground" aria-hidden="true" d="" display="none"/></g></g></g><path class="foreground" aria-hidden="true" d="" display="none"/></g><g transform="translate(0,107.625)"><path class="background" aria-hidden="true" d="M0,0L572.2800000000001,0C573.935745073482,0,575.2800000000001,1.344254926518,575.2800000000001,3L575.2800000000001,89.25C575.2800000000001,90.905745073482,573.935745073482,92.25,572.2800000000001,92.25L0,92.25C0,92.25,0,92.25,0,92.25L0,0C0,0,0,0,0,0Z"/><g clip-path="url(#clip34)"><g class="mark-group role-scope" role="graphics-object" aria-roledescription="group mark container"><g transform="translate(0,0)"><path class="background" aria-hidden="true" d="M0,0h0v92.25h0Z"/><g><g class="mark-rect role-mark marks" role="graphics-object" aria-roledescription="rect mark container"><path aria-label="value: 4.23; label: 4.23 kWh" role="graphics-symbol" aria-roledescription="bar" d="M0,0h575.2800000000001v92.25h-575.2800000000001Z" fill="#4c6ef5"/></g></g><path class="foreground" aria-hidden="true" d="" display="none"/></g></g></g><path class="foreground" aria-hidden="true" d="" display="none"/></g><g transform="translate(0,210.125)"><path class="background" aria-hidden="true" d="M0,0L595.4000000000001,0C597.0557450734821,0,598.4000000000001,1.344254926518,598.4000000000001,3L598.4000000000001,89.25C598.4000000000001,90.905745073482,597.0557450734821,92.25,595.4000000000001,92.25L0,92.25C0,92.25,0,92.25,0,92.25L0,0C0,0,0,0,0,0Z"/><g clip-path="url(#clip35)"><g class="mark-group role-scope" role="graphics-object" aria-roledescription="group mark container"><g transform="translate(0,0)"><path class="background" aria-hidden="true" d="M0,0h0v92.25h0Z"/><g><g class="mark-rect role-mark marks" role="graphics-object" aria-roledescription="rect mark container"><path aria-label="value: 4.4; label: 4.40 kWh" role="graphics-symbol" aria-roledescription="bar" d="M0,0h598.4000000000001v92.25h-598.4000000000001Z" fill="#4c6ef5"/></g></g><path class="foreground" aria-hidden="true" d="" display="none"/></g></g></g><path class="foreground" aria-hidden="true" d="" display="none"/></g><g transform="translate(0,312.625)"><path class="background" aria-hidden="true" d="M0,0L643,0C644.655745073482,0,646,1.344254926518,646,3L646,89.25C646,90.905745073482,644.655745073482,92.25,643,92.25L0,92.25C0,92.25,0,92.25,0,92.25L0,0C0,0,0,0,0,0Z"/><g clip-path="url(#clip36)"><g class="mark-group role-scope" role="graphics-object" aria-roledescription="group mark container"><g transform="translate(0,0)"><path class="background" aria-hidden="true" d="M0,0h0v92.25h0Z"/><g><g class="mark-rect role-mark marks" role="graphics-object" aria-roledescription="rect mark container"><path aria-label="value: 4.75; label: 4.75 kWh" role="graphics-symbol" aria-roledescription="bar" d="M0,0h646v92.25h-646Z" fill="#4c6ef5"/></g></g><path class="foreground" aria-hidden="true" d="" display="none"/></g></g></g><path class="foreground" aria-hidden="true" d="" display="none"/></g></g></g><path class="foreground" aria-hidden="true" d="" display="none"/></g></g></g><defs><clipPath id="clip33"><path d="M0,0L541,0C542.655745073482,0,544,1.344254926518,544,3L544,89.25C544,90.905745073482,542.655745073482,92.25,541,92.25L0,92.25C0,92.25,0,92.25,0,92.25L0,0C0,0,0,0,0,0Z"/></clipPath><clipPath id="clip34"><path d="M0,0L572.2800000000001,0C573.935745073482,0,575.2800000000001,1.344254926518,575.2800000000001,3L575.2800000000001,89.25C575.2800000000001,90.905745073482,573.935745073482,92.25,572.2800000000001,92.25L0,92.25C0,92.25,0,92.25,0,92.25L0,0C0,0,0,0,0,0Z"/></clipPath><clipPath id="clip35"><path d="M0,0L595.4000000000001,0C597.0557450734821,0,598.4000000000001,1.344254926518,598.4000000000001,3L598.4000000000001,89.25C598.4000000000001,90.905745073482,597.0557450734821,92.25,595.4000000000001,92.25L0,92.25C0,92.25,0,92.25,0,92.25L0,0C0,0,0,0,0,0Z"/></clipPath><clipPath id="clip36"><path d="M0,0L643,0C644.655745073482,0,646,1.344254926518,646,3L646,89.25C646,90.905745073482,644.655745073482,92.25,643,92.25L0,92.25C0,92.25,0,92.25,0,92.25L0,0C0,0,0,0,0,0Z"/></clipPath></defs></svg>