<svg xmlns="http://www.w3.org/2000/svg" xmlns:xlink="http://www.w3.org/1999/xlink" version="1.1" class="marks" width="745" height="470" viewBox="0 0 745 470"><g fill="none" stroke-miterlimit="10" transform="translate(59,23)"><g class="mark-group role-frame root" role="graphics-object" aria-roledescription="group mark container"><g transform="translate(0,0)"><path class="background" aria-hidden="true" d="M0,0h680v410h-680Z"/><g><g class="mark-group role-axis" role="graphics-symbol" aria-roledescription="axis" aria-label="X-axis titled 'lakh' for a linear scale with values from 0 to 100"><g transform="translate(0.5,410.5)"><path class="background" aria-hidden="true" d="M0,0h0v0h0Z" pointer-events="none"/><g><g class="mark-rule role-axis-tick" pointer-events="none"><line transform="translate(0,0)" x2="0" y2="5" stroke="#888" stroke-width="1" opacity="1"/><line transform="translate(34,0)" x2="0" y2="5" stroke="#888" stroke-width="1" opacity="1"/><line transform="translate(68,0)" x2="0" y2="5" stroke="#888" stroke-width="1" opacity="1"/><line transform="translate(102,0)" x2="0" y2="5" stroke="#888" stroke-width="1" opacity="1"/><line transform="translate(136,0)" x2="0" y2="5" stroke="#888" stroke-width="1" opacity="1"/><line transform="translate(170,0)" x2="0" y2="5" stroke="#888" stroke-width="1" opacity="1"/><line transform="translate(204,0)" x2="0" y2="5" stroke="#888" stroke-width="1" opacity="1"/><line transform="translate(238,0)" x2="0" y2="5" stroke="#888" stroke-width="1" opacity="1"/><line transform="translate(272,0)" x2="0" y2="5" stroke="#888" stroke-width="1" opacity="1"/><line transform="translate(306,0)" x2="0" y2="5" stroke="#888" stroke-width="1" opacity="1"/><line transform="translate(340,0)" x2="0" y2="5" stroke="#888" stroke-width="1" opacity="1"/><line transform="translate(374,0)" x2="0" y2="5" stroke="#888" stroke-width="1" opacity="1"/><line transform="translate(408,0)" x2="0" y2="5" stroke="#888" stroke-width="1" opacity="1"/><line transform="translate(442,0)" x2="0" y2="5" stroke="#888" stroke-width="1" opacity="1"/><line transform="translate(476,0)" x2="0" y2="5" stroke="#888" stroke-width="1" opacity="1"/><line transform="translate(510,0)" x2="0" y2="5" stroke="#888" stroke-width="1" opacity="1"/><line transform="translate(544,0)" x2="0" y2="5" stroke="#888" stroke-width="1" opacity="1"/><line transform="translate(578,0)" x2="0" y2="5" stroke="#888" stroke-width="1" opacity="1"/><line transform="translate(612,0)" x2="0" y2="5" stroke="#888" stroke-width="1" opacity="1"/><line transform="translate(646,0)" x2="0" y2="5" stroke="#888" stroke-width="1" opacity="1"/><line transform="translate(680,0)" x2="0" y2="5" stroke="#888" stroke-width="1" opacity="1"/></g><g class="mark-text role-axis-label" pointer-events="none"><text text-anchor="start" transform="translate(0,15)" font-family="sans-serif" font-size="10px" fill="#000" opacity="1">0</text><text text-anchor="middle" transform="translate(34,15)" font-family="sans-serif" font-size="10px" fill="#000" opacity="1">5</text><text text-anchor="middle" transform="translate(68,15)" font-family="sans-serif" font-size="10px" fill="#000" opacity="1">10</text><text text-anchor="middle" transform="translate(102,15)" font-family="sans-serif" font-size="10px" fill="#000" opacity="1">15</text><text text-anchor="middle" transform="translate(136,15)" font-family="sans-serif" font-size="10px" fill="#000" opacity="1">20</text><text text-anchor="middle" transform="translate(170,15)" font-family="sans-serif" font-size="10px" fill="#000" opacity="1">25</text><text text-anchor="middle" transform="translate(204,15)" font-family="sans-serif" font-size="10px" fill="#000" opacity="1">30</text><text text-anchor="middle" transform="translate(237.99999999999997,15)" font-family="sans-serif" font-size="10px" fill="#000" opacity="1">35</text><text text-anchor="middle" transform="translate(272,15)" font-family="sans-serif" font-size="10px" fill="#000" opacity="1">40</text><text text-anchor="middle" transform="translate(306,15)" font-family="sans-serif" font-size="10px" fill="#000" opacity="1">45</text><text text-anchor="middle" transform="translate(340,15)" font-family="sans-serif" font-size="10px" fill="#000" opacity="1">50</text><text text-anchor="middle" transform="translate(374.00000000000006,15)" font-family="sans-serif" font-size="10px" fill="#000" opacity="1">55</text><text text-anchor="middle" transform="translate(408,15)" font-family="sans-serif" font-size="10px" fill="#000" opacity="1">60</text><text text-anchor="middle" transform="translate(442,15)" font-family="sans-serif" font-size="10px" fill="#000" opacity="1">65</text><text text-anchor="middle" transform="translate(475.99999999999994,15)" font-family="sans-serif" font-size="10px" fill="#000" opacity="1">70</text><text text-anchor="middle" transform="translate(510,15)" font-family="sans-serif" font-size="10px" fill="#000" opacity="1">75</text><text text-anchor="middle" transform="translate(544,15)" font-family="sans-serif" font-size="10px" fill="#000" opacity="1">80</text><text text-anchor="middle" transform="translate(578,15)" font-family="sans-serif" font-size="10px" fill="#000" opacity="1">85</text><text text-anchor="middle" transform="translate(612,15)" font-family="sans-serif" font-size="10px" fill="#000" opacity="1">90</text><text text-anchor="middle" transform="translate(646,15)" font-family="sans-serif" font-size="10px" fill="#000" opacity="1">95</text><text text-anchor="end" transform="translate(680,15)" font-family="sans-serif" font-size="10px" fill="#000" opacity="1">100</text></g><g class="mark-rule role-axis-domain" pointer-events="none"><line transform="translate(0,0)" x2="680" y2="0" stroke="#888" stroke-width="1" opacity="1"/></g><g class="mark-text role-axis-title" pointer-events="none"><text text-anchor="middle" transform="translate(340,30)" font-family="sans-serif" font-size="11px" font-weight="bold" fill="#000" opacity="1">lakh</text></g></g><path class="foreground" aria-hidden="true" d="" pointer-events="none" display="none"/></g></g><g class="mark-group role-axis" role="graphics-symbol" aria-roledescription="axis" aria-label="Y-axis for a discrete scale with 6 values: 33 lakh, 97.56 lakh, 19.33 lakh, 13.79 lakh, 4.5 lakh, 3 lakh"><g transform="translate(0.5,0.5)"><path class="background" aria-hidden="true" d="M0,0h0v0h0Z" pointer-events="none"/><g><g class="mark-rule role-axis-tick" pointer-events="none"><line transform="translate(0,34)" x2="-5" y2="0" stroke="#888" stroke-width="1" opacity="1"/><line transform="translate(0,102)" x2="-5" y2="0" stroke="#888" stroke-width="1" opacity="1"/><line transform="translate(0,170)" x2="-5" y2="0" stroke="#888" stroke-width="1" opacity="1"/><line transform="translate(0,239)" x2="-5" y2="0" stroke="#888" stroke-width="1" opacity="1"/><line transform="translate(0,307)" x2="-5" y2="0" stroke="#888" stroke-width="1" opacity="1"/><line transform="translate(0,375)" x2="-5" y2="0" stroke="#888" stroke-width="1" opacity="1"/></g><g class="mark-text role-axis-label" pointer-events="none"><text text-anchor="end" transform="translate(-7,36.66666666666666)" font-family="sans-serif" font-size="10px" fill="#000" opacity="1">33 lakh</text><text text-anchor="end" transform="translate(-7,104.99999999999999)" font-family="sans-serif" font-size="10px" fill="#000" opacity="1">97.56 lakh</text><text text-anchor="end" transform="translate(-7,173.33333333333331)" font-family="sans-serif" font-size="10px" fill="#000" opacity="1">19.33 lakh</text><text text-anchor="end" transform="translate(-7,241.66666666666666)" font-family="sans-serif" font-size="10px" fill="#000" opacity="1">13.79 lakh</text><text text-anchor="end" transform="translate(-7,310)" font-family="sans-serif" font-size="10px" fill="#000" opacity="1">4.5 lakh</text><text text-anchor="end" transform="translate(-7,378.33333333333326)" font-family="sans-serif" font-size="10px" fill="#000" opacity="1">3 lakh</text></g><g class="mark-rule role-axis-domain" pointer-events="none"><line transform="translate(0,0)" x2="0" y2="410" stroke="#888" stroke-width="1" opacity="1"/></g></g><path class="foreground" aria-hidden="true" d="" pointer-events="none" display="none"/></g></g><g class="mark-group role-scope" role="graphics-object" aria-roledescription="group mark container"><g transform="translate(0,3.416666666666657)"><path class="background" aria-hidden="true" d="M0,0L221.4,0C223.055745073482,0,224.4,1.344254926518,224.4,3L224.4,58.5C224.4,60.155745073482,223.055745073482,61.5,221.4,61.5L0,61.5C0,61.5,0,61.5,0,61.5L0,0C0,0,0,0,0,0Z"/><g clip-path="url(#clip10)"><g class="mark-group role-scope" role="graphics-object" aria-roledescription="group mark container"><g transform="translate(0,0)"><path class="background" aria-hidden="true" d="M0,0h0v61.5h0Z"/><g><g class="mark-rect role-mark marks" role="graphics-object" aria-roledescription="rect mark container"><path aria-label="value: 33; label: 33 lakh" role="graphics-symbol" aria-roledescription="bar" d="M0,0h224.4v61.5h-224.4Z" fill="#4c6ef5"/></g></g><path class="foreground" aria-hidden="true" d="" display="none"/></g></g></g><path class="foreground" aria-hidden="true" d="" display="none"/></g><g transform="translate(0,71.74999999999999)"><path class="background" aria-hidden="true" d="M0,0L660.408,0C662.063745073482,0,663.408,1.344254926518,663.408,3L663.408,58.5C663.408,60.155745073482,662.063745073482,61.5,660.408,61.5L0,61.5C0,61.5,0,61.5,0,61.5L0,0C0,0,0,0,0,0Z"/><g clip-path="url(#clip11)"><g class="mark-group role-scope" role="graphics-object" aria-roledescription="group mark container"><g transform="translate(0,0)"><path class="background" aria-hidden="true" d="M0,0h0v61.5h0Z"/><g><g class="mark-rect role-mark marks" role="graphics-object" aria-roledescription="rect mark container"><path aria-label="value: 97.56; label: 97.56 lakh" role="graphics-symbol" aria-roledescription="bar" d="M0,0h663.408v61.5h-663.408Z" fill="#4c6ef5"/></g></g><path class="foreground" aria-hidden="true" d="" display="none"/></g></g></g><path class="foreground" aria-hidden="true" d="" display="none"/></g><g transform="translate(0,140.08333333333331)"><path class="background" aria-hidden="true" d="M0,0L128.444,0C130.09974507348198,0,131.444,1.344254926518,131.444,3L131.444,58.5C131.444,60.155745073482,130.09974507348198,61.5,128.444,61.5L0,61.5C0,61.5,0,61.5,0,61.5L0,0C0,0,0,0,0,0Z"/><g clip-path="url(#clip12)"><g class="mark-group role-scope" role="graphics-object" aria-roledescription="group mark container"><g transform="translate(0,0)"><path class="background" aria-hidden="true" d="M0,0h0v61.5h0Z"/><g><g class="mark-rect role-mark marks" role="graphics-object" aria-roledescription="rect mark container"><path aria-label="value: 19.33; label: 19.33 lakh" role="graphics-symbol" aria-roledescription="bar" d="M0,0h131.444v61.5h-131.444Z" fill="#4c6ef5"/></g></g><path class="foreground" aria-hidden="true" d="" display="none"/></g></g></g><path class="foreground" aria-hidden="true" d="" display="none"/></g><g transform="translate(0,208.41666666666666)"><path class="background" aria-hidden="true" d="M0,0L90.77199999999999,0C92.42774507348199,0,93.77199999999999,1.344254926518,93.77199999999999,3L93.77199999999999,58.5C93.77199999999999,60.155745073482,92.42774507348199,61.5,90.77199999999999,61.5L0,61.5C0,61.5,0,61.5,0,61.5L0,0C0,0,0,0,0,0Z"/><g clip-path="url(#clip13)"><g class="mark-group role-scope" role="graphics-object" aria-roledescription="group mark container"><g transform="translate(0,0)"><path class="background" aria-hidden="true" d="M0,0h0v61.5h0Z"/><g><g class="mark-rect role-mark marks" role="graphics-object" aria-roledescription="rect mark container"><path aria-label="value: 13.79; label: 13.79 lakh" role="graphics-symbol" aria-roledescription="bar" d="M0,0h93.77199999999999v61.5h-93.77199999999999Z" fill="#4c6ef5"/></g></g><path class="foreground" aria-hidden="true" d="" display="none"/></g></g></g><path class="foreground" aria-hidden="true" d="" display="none"/></g><g transform="translate(0,276.75)"><path class="background" aria-hidden="true" d="M0,0L27.599999999999998,0C29.255745073481997,0,30.599999999999998,1.344254926518,30.599999999999998,3L30.599999999999998,58.5C30.599999999999998,60.155745073482,29.255745073481997,61.5,27.599999999999998,61.5L0,61.5C0,61.5,0,61.5,0,61.5L0,0C0,0,0,0,0,0Z"/><g clip-path="url(#clip14)"><g class="mark-group role-scope" role="graphics-object" aria-roledescription="group mark container"><g transform="translate(0,0)"><path class="background" aria-hidden="true" d="M0,0h0v61.5h0Z"/><g><g class="mark-rect role-mark marks" role="graphics-object" aria-roledescription="rect mark container"><path aria-label="value: 4.5; label: 4.5 lakh" role="graphics-symbol" aria-roledescription="bar" d="M0,0h30.599999999999998v61.5h-30.599999999999998Z" fill="#4c6ef5"/></g></g><path class="foreground" aria-hidden="true" d="" display="none"/></g></g></g><path class="foreground" aria-hidden="true" d="" display="none"/></g><g transform="translate(0,345.08333333333326)"><path class="background" aria-hidden="true" d="M0,0L17.4,0C19.055745073481997,0,20.4,1.344254926518,20.4,3L20.4,58.5C20.4,60.155745073482,19.055745073481997,61.5,17.4,61.5L0,61.5C0,61.5,0,61.5,0,61.5L0,0C0,0,0,0,0,0Z"/><g clip-path="url(#clip15)"><g class="mark-group role-scope" role="graphics-object" aria-roledescription="group mark container"><g transform="translate(0,0)"><path class="background" aria-hidden="true" d="M0,0h0v61.5h0Z"/><g><g class="mark-rect role-mark marks" role="graphics-object" aria-roledescription="rect mark container"><path aria-label="value: 3; label: 3 lakh" role="graphics-symbol" aria-roledescription="bar" d="M0,0h20.4v61.5h-20.4Z" fill="#4c6ef5"/></g></g><path class="foreground" aria-hidden="true" d="" display="none"/></g></g></g><path class="foreground" aria-hidden="true" d="" display="none"/></g></g><g class="mark-group role-title"><g transform="translate(-53.1474609375,-18)"><path class="background" aria-hidden="true" d="M0,0h0v0h0Z" pointer-events="none"/><g><g class="mark-text role-title-text" role="graphics-symbol" aria-roledescription="title" aria-label="Title text 'Notices issued under Delhi SIR drive'" pointer-events="none"><text text-anchor="start" transform="translate(0,11)" font-family="sans-serif" font-size="14px" font-weight="bold" fill="#000" opacity="1">Notices issued under Delhi SIR drive</text></g></g><path class="foreground" aria-hidden="true" d="" pointer-events="none" display="none"/></g></g></g><path class="foreground" aria-hidden="true" d="" display="none"/></g></g></g><defs><clipPath id="clip10"><path d="M0,0L221.4,0C223.055745073482,0,224.4,1.344254926518,224.4,3L224.4,58.5C224.4,60.155745073482,223.055745073482,61.5,221.4,61.5L0,61.5C0,61.5,0,61.5,0,61.5L0,0C0,0,0,0,0,0Z"/></clipPath><clipPath id="clip11"><path d="M0,0L660.408,0C662.063745073482,0,663.408,1.344254926518,663.408,3L663.408,58.5C663.408,60.155745073482,662.063745073482,61.5,660.408,61.5L0,61.5C0,61.5,0,61.5,0,61.5L0,0C0,0,0,0,0,0Z"/></clipPath><clipPath id="clip12"><path d="M0,0L128.444,0C130.09974507348198,0,131.444,1.344254926518,131.444,3L131.444,58.5C131.444,60.155745073482,130.09974507348198,61.5,128.444,61.5L0,61.5C0,61.5,0,61.5,0,61.5L0,0C0,0,0,0,0,0Z"/></clipPath><clipPath id="clip13"><path d="M0,0L90.77199999999999,0C92.42774507348199,0,93.77199999999999,1.344254926518,93.77199999999999,3L93.77199999999999,58.5C93.77199999999999,60.155745073482,92.42774507348199,61.5,90.77199999999999,61.5L0,61.5C0,61.5,0,61.5,0,61.5L0,0C0,0,0,0,0,0Z"/></clipPath><clipPath id="clip14"><path d="M0,0L27.599999999999998,0C29.255745073481997,0,30.599999999999998,1.344254926518,30.599999999999998,3L30.599999999999998,58.5C30.599999999999998,60.155745073482,29.255745073481997,61.5,27.599999999999998,61.5L0,61.5C0,61.5,0,61.5,0,61.5L0,0C0,0,0,0,0,0Z"/></clipPath><clipPath id="clip15"><path d="M0,0L17.4,0C19.055745073481997,0,20.4,1.344254926518,20.4,3L20.4,58.5C20.4,60.155745073482,19.055745073481997,61.5,17.4,61.5L0,61.5C0,61.5,0,61.5,0,61.5L0,0C0,0,0,0,0,0Z"/></clipPath></defs></svg>