<svg xmlns="http://www.w3.org/2000/svg" xmlns:xlink="http://www.w3.org/1999/xlink" version="1.1" class="marks" width="744" height="452" viewBox="0 0 744 452"><g fill="none" stroke-miterlimit="10" transform="translate(58,5)"><g class="mark-group role-frame root" role="graphics-object" aria-roledescription="group mark container"><g transform="translate(0,0)"><path class="background" aria-hidden="true" d="M0,0h680v410h-680Z"/><g><g class="mark-group role-axis" role="graphics-symbol" aria-roledescription="axis" aria-label="X-axis titled 'gwh' for a linear scale with values from 0 to 110"><g transform="translate(0.5,410.5)"><path class="background" aria-hidden="true" d="M0,0h0v0h0Z" pointer-events="none"/><g><g class="mark-rule role-axis-tick" pointer-events="none"><line transform="translate(0,0)" x2="0" y2="5" stroke="#888" stroke-width="1" opacity="1"/><line transform="translate(31,0)" x2="0" y2="5" stroke="#888" stroke-width="1" opacity="1"/><line transform="translate(62,0)" x2="0" y2="5" stroke="#888" stroke-width="1" opacity="1"/><line transform="translate(93,0)" x2="0" y2="5" stroke="#888" stroke-width="1" opacity="1"/><line transform="translate(124,0)" x2="0" y2="5" stroke="#888" stroke-width="1" opacity="1"/><line transform="translate(155,0)" x2="0" y2="5" stroke="#888" stroke-width="1" opacity="1"/><line transform="translate(185,0)" x2="0" y2="5" stroke="#888" stroke-width="1" opacity="1"/><line transform="translate(216,0)" x2="0" y2="5" stroke="#888" stroke-width="1" opacity="1"/><line transform="translate(247,0)" x2="0" y2="5" stroke="#888" stroke-width="1" opacity="1"/><line transform="translate(278,0)" x2="0" y2="5" stroke="#888" stroke-width="1" opacity="1"/><line transform="translate(309,0)" x2="0" y2="5" stroke="#888" stroke-width="1" opacity="1"/><line transform="translate(340,0)" x2="0" y2="5" stroke="#888" stroke-width="1" opacity="1"/><line transform="translate(371,0)" x2="0" y2="5" stroke="#888" stroke-width="1" opacity="1"/><line transform="translate(402,0)" x2="0" y2="5" stroke="#888" stroke-width="1" opacity="1"/><line transform="translate(433,0)" x2="0" y2="5" stroke="#888" stroke-width="1" opacity="1"/><line transform="translate(464,0)" x2="0" y2="5" stroke="#888" stroke-width="1" opacity="1"/><line transform="translate(495,0)" x2="0" y2="5" stroke="#888" stroke-width="1" opacity="1"/><line transform="translate(525,0)" x2="0" y2="5" stroke="#888" stroke-width="1" opacity="1"/><line transform="translate(556,0)" x2="0" y2="5" stroke="#888" stroke-width="1" opacity="1"/><line transform="translate(587,0)" x2="0" y2="5" stroke="#888" stroke-width="1" opacity="1"/><line transform="translate(618,0)" x2="0" y2="5" stroke="#888" stroke-width="1" opacity="1"/><line transform="translate(649,0)" x2="0" y2="5" stroke="#888" stroke-width="1" opacity="1"/><line transform="translate(680,0)" x2="0" y2="5" stroke="#888" stroke-width="1" opacity="1"/></g><g class="mark-text role-axis-label" pointer-events="none"><text text-anchor="start" transform="translate(0,15)" font-family="sans-serif" font-size="10px" fill="#000" opacity="1">0</text><text text-anchor="middle" transform="translate(30.90909090909091,15)" font-family="sans-serif" font-size="10px" fill="#000" opacity="1">5</text><text text-anchor="middle" transform="translate(61.81818181818182,15)" font-family="sans-serif" font-size="10px" fill="#000" opacity="1">10</text><text text-anchor="middle" transform="translate(92.72727272727272,15)" font-family="sans-serif" font-size="10px" fill="#000" opacity="1">15</text><text text-anchor="middle" transform="translate(123.63636363636364,15)" font-family="sans-serif" font-size="10px" fill="#000" opacity="1">20</text><text text-anchor="middle" transform="translate(154.54545454545453,15)" font-family="sans-serif" font-size="10px" fill="#000" opacity="1">25</text><text text-anchor="middle" transform="translate(185.45454545454544,15)" font-family="sans-serif" font-size="10px" fill="#000" opacity="1">30</text><text text-anchor="middle" transform="translate(216.36363636363637,15)" font-family="sans-serif" font-size="10px" fill="#000" opacity="1">35</text><text text-anchor="middle" transform="translate(247.27272727272728,15)" font-family="sans-serif" font-size="10px" fill="#000" opacity="1">40</text><text text-anchor="middle" transform="translate(278.1818181818182,15)" font-family="sans-serif" font-size="10px" fill="#000" opacity="1">45</text><text text-anchor="middle" transform="translate(309.09090909090907,15)" font-family="sans-serif" font-size="10px" fill="#000" opacity="1">50</text><text text-anchor="middle" transform="translate(340,15)" font-family="sans-serif" font-size="10px" fill="#000" opacity="1">55</text><text text-anchor="middle" transform="translate(370.9090909090909,15)" font-family="sans-serif" font-size="10px" fill="#000" opacity="1">60</text><text text-anchor="middle" transform="translate(401.8181818181818,15)" font-family="sans-serif" font-size="10px" fill="#000" opacity="1">65</text><text text-anchor="middle" transform="translate(432.72727272727275,15)" font-family="sans-serif" font-size="10px" fill="#000" opacity="1">70</text><text text-anchor="middle" transform="translate(463.6363636363636,15)" font-family="sans-serif" font-size="10px" fill="#000" opacity="1">75</text><text text-anchor="middle" transform="translate(494.54545454545456,15)" font-family="sans-serif" font-size="10px" fill="#000" opacity="1">80</text><text text-anchor="middle" transform="translate(525.4545454545455,15)" font-family="sans-serif" font-size="10px" fill="#000" opacity="1">85</text><text text-anchor="middle" transform="translate(556.3636363636364,15)" font-family="sans-serif" font-size="10px" fill="#000" opacity="1">90</text><text text-anchor="middle" transform="translate(587.2727272727273,15)" font-family="sans-serif" font-size="10px" fill="#000" opacity="1">95</text><text text-anchor="middle" transform="translate(618.1818181818181,15)" font-family="sans-serif" font-size="10px" fill="#000" opacity="1">100</text><text text-anchor="middle" transform="translate(649.0909090909091,15)" font-family="sans-serif" font-size="10px" fill="#000" opacity="1">105</text><text text-anchor="end" transform="translate(680,15)" font-family="sans-serif" font-size="10px" fill="#000" opacity="1">110</text></g><g class="mark-rule role-axis-domain" pointer-events="none"><line transform="translate(0,0)" x2="680" y2="0" stroke="#888" stroke-width="1" opacity="1"/></g><g class="mark-text role-axis-title" pointer-events="none"><text text-anchor="middle" transform="translate(340,30)" font-family="sans-serif" font-size="11px" font-weight="bold" fill="#000" opacity="1">gwh</text></g></g><path class="foreground" aria-hidden="true" d="" pointer-events="none" display="none"/></g></g><g class="mark-group role-axis" role="graphics-symbol" aria-roledescription="axis" aria-label="Y-axis for a discrete scale with 5 values: 30.8 GWh, 18 GWh, 6.2 GWh, 1.8 GWh, 683 GWh"><g transform="translate(0.5,0.5)"><path class="background" aria-hidden="true" d="M0,0h0v0h0Z" pointer-events="none"/><g><g class="mark-rule role-axis-tick" pointer-events="none"><line transform="translate(0,40)" x2="-5" y2="0" stroke="#888" stroke-width="1" opacity="1"/><line transform="translate(0,123)" x2="-5" y2="0" stroke="#888" stroke-width="1" opacity="1"/><line transform="translate(0,205)" x2="-5" y2="0" stroke="#888" stroke-width="1" opacity="1"/><line transform="translate(0,287)" x2="-5" y2="0" stroke="#888" stroke-width="1" opacity="1"/><line transform="translate(0,369)" x2="-5" y2="0" stroke="#888" stroke-width="1" opacity="1"/></g><g class="mark-text role-axis-label" pointer-events="none"><text text-anchor="end" transform="translate(-7,43.49999999999999)" font-family="sans-serif" font-size="10px" fill="#000" opacity="1">30.8 GWh</text><text text-anchor="end" transform="translate(-7,125.5)" font-family="sans-serif" font-size="10px" fill="#000" opacity="1">18 GWh</text><text text-anchor="end" transform="translate(-7,207.5)" font-family="sans-serif" font-size="10px" fill="#000" opacity="1">6.2 GWh</text><text text-anchor="end" transform="translate(-7,289.5)" font-family="sans-serif" font-size="10px" fill="#000" opacity="1">1.8 GWh</text><text text-anchor="end" transform="translate(-7,371.5)" font-family="sans-serif" font-size="10px" fill="#000" opacity="1">683 GWh</text></g><g class="mark-rule role-axis-domain" pointer-events="none"><line transform="translate(0,0)" x2="0" y2="410" stroke="#888" stroke-width="1" opacity="1"/></g></g><path class="foreground" aria-hidden="true" d="" pointer-events="none" display="none"/></g></g><g class="mark-group role-scope" role="graphics-object" aria-roledescription="group mark container"><g transform="translate(0,4.099999999999994)"><path class="background" aria-hidden="true" d="M0,0L187.4,0C189.055745073482,0,190.4,1.344254926518,190.4,3L190.4,70.8C190.4,72.45574507348199,189.055745073482,73.8,187.4,73.8L0,73.8C0,73.8,0,73.8,0,73.8L0,0C0,0,0,0,0,0Z"/><g clip-path="url(#clip24)"><g class="mark-group role-scope" role="graphics-object" aria-roledescription="group mark container"><g transform="translate(0,0)"><path class="background" aria-hidden="true" d="M0,0h0v73.8h0Z"/><g><g class="mark-rect role-mark marks" role="graphics-object" aria-roledescription="rect mark container"><path aria-label="value: 30.8; label: 30.8 GWh" role="graphics-symbol" aria-roledescription="bar" d="M0,0h190.4v73.8h-190.4Z" fill="#4c6ef5"/></g></g><path class="foreground" aria-hidden="true" d="" display="none"/></g></g></g><path class="foreground" aria-hidden="true" d="" display="none"/></g><g transform="translate(0,86.1)"><path class="background" aria-hidden="true" d="M0,0L108.27272727272727,0C109.92847234620926,0,111.27272727272727,1.344254926518,111.27272727272727,3L111.27272727272727,70.8C111.27272727272727,72.45574507348199,109.92847234620926,73.8,108.27272727272727,73.8L0,73.8C0,73.8,0,73.8,0,73.8L0,0C0,0,0,0,0,0Z"/><g clip-path="url(#clip25)"><g class="mark-group role-scope" role="graphics-object" aria-roledescription="group mark container"><g transform="translate(0,0)"><path class="background" aria-hidden="true" d="M0,0h0v73.8h0Z"/><g><g class="mark-rect role-mark marks" role="graphics-object" aria-roledescription="rect mark container"><path aria-label="value: 18; label: 18 GWh" role="graphics-symbol" aria-roledescription="bar" d="M0,0h111.27272727272727v73.8h-111.27272727272727Z" fill="#4c6ef5"/></g></g><path class="foreground" aria-hidden="true" d="" display="none"/></g></g></g><path class="foreground" aria-hidden="true" d="" display="none"/></g><g transform="translate(0,168.1)"><path class="background" aria-hidden="true" d="M0,0L35.32727272727273,0C36.98301780075473,0,38.32727272727273,1.344254926518,38.32727272727273,3L38.32727272727273,70.8C38.32727272727273,72.45574507348199,36.98301780075473,73.8,35.32727272727273,73.8L0,73.8C0,73.8,0,73.8,0,73.8L0,0C0,0,0,0,0,0Z"/><g clip-path="url(#clip26)"><g class="mark-group role-scope" role="graphics-object" aria-roledescription="group mark container"><g transform="translate(0,0)"><path class="background" aria-hidden="true" d="M0,0h0v73.8h0Z"/><g><g class="mark-rect role-mark marks" role="graphics-object" aria-roledescription="rect mark container"><path aria-label="value: 6.2; label: 6.2 GWh" role="graphics-symbol" aria-roledescription="bar" d="M0,0h38.32727272727273v73.8h-38.32727272727273Z" fill="#4c6ef5"/></g></g><path class="foreground" aria-hidden="true" d="" display="none"/></g></g></g><path class="foreground" aria-hidden="true" d="" display="none"/></g><g transform="translate(0,250.1)"><path class="background" aria-hidden="true" d="M0,0L8.127272727272729,0C9.78301780075473,0,11.127272727272729,1.344254926518,11.127272727272729,3L11.127272727272729,70.8C11.127272727272729,72.45574507348199,9.78301780075473,73.8,8.127272727272729,73.8L0,73.8C0,73.8,0,73.8,0,73.8L0,0C0,0,0,0,0,0Z"/><g clip-path="url(#clip27)"><g class="mark-group role-scope" role="graphics-object" aria-roledescription="group mark container"><g transform="translate(0,0)"><path class="background" aria-hidden="true" d="M0,0h0v73.8h0Z"/><g><g class="mark-rect role-mark marks" role="graphics-object" aria-roledescription="rect mark container"><path aria-label="value: 1.8; label: 1.8 GWh" role="graphics-symbol" aria-roledescription="bar" d="M0,0h11.127272727272729v73.8h-11.127272727272729Z" fill="#4c6ef5"/></g></g><path class="foreground" aria-hidden="true" d="" display="none"/></g></g></g><path class="foreground" aria-hidden="true" d="" display="none"/></g><g transform="translate(0,332.1)"><path class="background" aria-hidden="true" d="M0,0L677,0C678.655745073482,0,680,1.344254926518,680,3L680,70.8C680,72.45574507348199,678.655745073482,73.8,677,73.8L0,73.8C0,73.8,0,73.8,0,73.8L0,0C0,0,0,0,0,0Z"/><g clip-path="url(#clip28)"><g class="mark-group role-scope" role="graphics-object" aria-roledescription="group mark container"><g transform="translate(0,0)"><path class="background" aria-hidden="true" d="M0,0h0v73.8h0Z"/><g><g class="mark-rect role-mark marks" role="graphics-object" aria-roledescription="rect mark container"><path aria-label="value: 110; label: 683 GWh" role="graphics-symbol" aria-roledescription="bar" d="M0,0h680v73.8h-680Z" fill="#4c6ef5"/></g></g><path class="foreground" aria-hidden="true" d="" display="none"/></g></g></g><path class="foreground" aria-hidden="true" d="" display="none"/></g></g></g><path class="foreground" aria-hidden="true" d="" display="none"/></g></g></g><defs><clipPath id="clip24"><path d="M0,0L187.4,0C189.055745073482,0,190.4,1.344254926518,190.4,3L190.4,70.8C190.4,72.45574507348199,189.055745073482,73.8,187.4,73.8L0,73.8C0,73.8,0,73.8,0,73.8L0,0C0,0,0,0,0,0Z"/></clipPath><clipPath id="clip25"><path d="M0,0L108.27272727272727,0C109.92847234620926,0,111.27272727272727,1.344254926518,111.27272727272727,3L111.27272727272727,70.8C111.27272727272727,72.45574507348199,109.92847234620926,73.8,108.27272727272727,73.8L0,73.8C0,73.8,0,73.8,0,73.8L0,0C0,0,0,0,0,0Z"/></clipPath><clipPath id="clip26"><path d="M0,0L35.32727272727273,0C36.98301780075473,0,38.32727272727273,1.344254926518,38.32727272727273,3L38.32727272727273,70.8C38.32727272727273,72.45574507348199,36.98301780075473,73.8,35.32727272727273,73.8L0,73.8C0,73.8,0,73.8,0,73.8L0,0C0,0,0,0,0,0Z"/></clipPath><clipPath id="clip27"><path d="M0,0L8.127272727272729,0C9.78301780075473,0,11.127272727272729,1.344254926518,11.127272727272729,3L11.127272727272729,70.8C11.127272727272729,72.45574507348199,9.78301780075473,73.8,8.127272727272729,73.8L0,73.8C0,73.8,0,73.8,0,73.8L0,0C0,0,0,0,0,0Z"/></clipPath><clipPath id="clip28"><path d="M0,0L677,0C678.655745073482,0,680,1.344254926518,680,3L680,70.8C680,72.45574507348199,678.655745073482,73.8,677,73.8L0,73.8C0,73.8,0,73.8,0,73.8L0,0C0,0,0,0,0,0Z"/></clipPath></defs></svg>