<svg xmlns="http://www.w3.org/2000/svg" xmlns:xlink="http://www.w3.org/1999/xlink" version="1.1" class="marks" width="743" height="437" viewBox="0 0 743 437"><g fill="none" stroke-miterlimit="10" transform="translate(57,5)"><g class="mark-group role-frame root" role="graphics-object" aria-roledescription="group mark container"><g transform="translate(0,0)"><path class="background" aria-hidden="true" d="M0,0h680v410h-680Z"/><g><g class="mark-group role-axis" role="graphics-symbol" aria-roledescription="axis" aria-label="X-axis for a linear scale with values from 0k to 80k"><g transform="translate(0.5,410.5)"><path class="background" aria-hidden="true" d="M0,0h0v0h0Z" pointer-events="none"/><g><g class="mark-rule role-axis-tick" pointer-events="none"><line transform="translate(0,0)" x2="0" y2="5" stroke="#888" stroke-width="1" opacity="1"/><line transform="translate(43,0)" x2="0" y2="5" stroke="#888" stroke-width="1" opacity="1"/><line transform="translate(85,0)" x2="0" y2="5" stroke="#888" stroke-width="1" opacity="1"/><line transform="translate(128,0)" x2="0" y2="5" stroke="#888" stroke-width="1" opacity="1"/><line transform="translate(170,0)" x2="0" y2="5" stroke="#888" stroke-width="1" opacity="1"/><line transform="translate(213,0)" x2="0" y2="5" stroke="#888" stroke-width="1" opacity="1"/><line transform="translate(255,0)" x2="0" y2="5" stroke="#888" stroke-width="1" opacity="1"/><line transform="translate(298,0)" x2="0" y2="5" stroke="#888" stroke-width="1" opacity="1"/><line transform="translate(340,0)" x2="0" y2="5" stroke="#888" stroke-width="1" opacity="1"/><line transform="translate(383,0)" x2="0" y2="5" stroke="#888" stroke-width="1" opacity="1"/><line transform="translate(425,0)" x2="0" y2="5" stroke="#888" stroke-width="1" opacity="1"/><line transform="translate(468,0)" x2="0" y2="5" stroke="#888" stroke-width="1" opacity="1"/><line transform="translate(510,0)" x2="0" y2="5" stroke="#888" stroke-width="1" opacity="1"/><line transform="translate(553,0)" x2="0" y2="5" stroke="#888" stroke-width="1" opacity="1"/><line transform="translate(595,0)" x2="0" y2="5" stroke="#888" stroke-width="1" opacity="1"/><line transform="translate(638,0)" x2="0" y2="5" stroke="#888" stroke-width="1" opacity="1"/><line transform="translate(680,0)" x2="0" y2="5" stroke="#888" stroke-width="1" opacity="1"/></g><g class="mark-text role-axis-label" pointer-events="none"><text text-anchor="start" transform="translate(0,15)" font-family="sans-serif" font-size="10px" fill="#000" opacity="1">0k</text><text text-anchor="middle" transform="translate(42.5,15)" font-family="sans-serif" font-size="10px" fill="#000" opacity="1">5k</text><text text-anchor="middle" transform="translate(85,15)" font-family="sans-serif" font-size="10px" fill="#000" opacity="1">10k</text><text text-anchor="middle" transform="translate(127.5,15)" font-family="sans-serif" font-size="10px" fill="#000" opacity="1">15k</text><text text-anchor="middle" transform="translate(170,15)" font-family="sans-serif" font-size="10px" fill="#000" opacity="1">20k</text><text text-anchor="middle" transform="translate(212.5,15)" font-family="sans-serif" font-size="10px" fill="#000" opacity="1">25k</text><text text-anchor="middle" transform="translate(255,15)" font-family="sans-serif" font-size="10px" fill="#000" opacity="1">30k</text><text text-anchor="middle" transform="translate(297.5,15)" font-family="sans-serif" font-size="10px" fill="#000" opacity="1">35k</text><text text-anchor="middle" transform="translate(340,15)" font-family="sans-serif" font-size="10px" fill="#000" opacity="1">40k</text><text text-anchor="middle" transform="translate(382.5,15)" font-family="sans-serif" font-size="10px" fill="#000" opacity="1">45k</text><text text-anchor="middle" transform="translate(425,15)" font-family="sans-serif" font-size="10px" fill="#000" opacity="1">50k</text><text text-anchor="middle" transform="translate(467.5,15)" font-family="sans-serif" font-size="10px" fill="#000" opacity="1">55k</text><text text-anchor="middle" transform="translate(510,15)" font-family="sans-serif" font-size="10px" fill="#000" opacity="1">60k</text><text text-anchor="middle" transform="translate(552.5,15)" font-family="sans-serif" font-size="10px" fill="#000" opacity="1">65k</text><text text-anchor="middle" transform="translate(595,15)" font-family="sans-serif" font-size="10px" fill="#000" opacity="1">70k</text><text text-anchor="middle" transform="translate(637.5,15)" font-family="sans-serif" font-size="10px" fill="#000" opacity="1">75k</text><text text-anchor="end" transform="translate(680,15)" font-family="sans-serif" font-size="10px" fill="#000" opacity="1">80k</text></g><g class="mark-rule role-axis-domain" pointer-events="none"><line transform="translate(0,0)" x2="680" y2="0" stroke="#888" stroke-width="1" opacity="1"/></g></g><path class="foreground" aria-hidden="true" d="" pointer-events="none" display="none"/></g></g><g class="mark-group role-axis" role="graphics-symbol" aria-roledescription="axis" aria-label="Y-axis for a discrete scale with 3 values: 24, 77,369.11, 24,219.05"><g transform="translate(0.5,0.5)"><path class="background" aria-hidden="true" d="M0,0h0v0h0Z" pointer-events="none"/><g><g class="mark-rule role-axis-tick" pointer-events="none"><line transform="translate(0,68)" x2="-5" y2="0" stroke="#888" stroke-width="1" opacity="1"/><line transform="translate(0,205)" x2="-5" y2="0" stroke="#888" stroke-width="1" opacity="1"/><line transform="translate(0,341)" x2="-5" y2="0" stroke="#888" stroke-width="1" opacity="1"/></g><g class="mark-text role-axis-label" pointer-events="none"><text text-anchor="end" transform="translate(-7,70.83333333333334)" font-family="sans-serif" font-size="10px" fill="#000" opacity="1">24</text><text text-anchor="end" transform="translate(-7,207.5)" font-family="sans-serif" font-size="10px" fill="#000" opacity="1">77,369.11</text><text text-anchor="end" transform="translate(-7,344.16666666666663)" font-family="sans-serif" font-size="10px" fill="#000" opacity="1">24,219.05</text></g><g class="mark-rule role-axis-domain" pointer-events="none"><line transform="translate(0,0)" x2="0" y2="410" stroke="#888" stroke-width="1" opacity="1"/></g></g><path class="foreground" aria-hidden="true" d="" pointer-events="none" display="none"/></g></g><g class="mark-group role-scope" role="graphics-object" aria-roledescription="group mark container"><g transform="translate(0,6.833333333333343)"><path class="background" aria-hidden="true" d="M0,0L0.102,0C0.15829533249838798,0,0.204,0.045704667501612,0.204,0.102L0.204,122.898C0.204,122.95429533249839,0.15829533249838798,123,0.102,123L0,123C0,123,0,123,0,123L0,0C0,0,0,0,0,0Z"/><g clip-path="url(#clip22)"><g class="mark-group role-scope" role="graphics-object" aria-roledescription="group mark container"><g transform="translate(0,0)"><path class="background" aria-hidden="true" d="M0,0h0v123h0Z"/><g><g class="mark-rect role-mark marks" role="graphics-object" aria-roledescription="rect mark container"><path aria-label="value: 24; label: 24" role="graphics-symbol" aria-roledescription="bar" d="M0,0h0.204v123h-0.204Z" fill="#4c6ef5"/></g></g><path class="foreground" aria-hidden="true" d="" display="none"/></g></g></g><path class="foreground" aria-hidden="true" d="" display="none"/></g><g transform="translate(0,143.5)"><path class="background" aria-hidden="true" d="M0,0L654.637435,0C656.293180073482,0,657.637435,1.344254926518,657.637435,3L657.637435,120C657.637435,121.655745073482,656.293180073482,123,654.637435,123L0,123C0,123,0,123,0,123L0,0C0,0,0,0,0,0Z"/><g clip-path="url(#clip23)"><g class="mark-group role-scope" role="graphics-object" aria-roledescription="group mark container"><g transform="translate(0,0)"><path class="background" aria-hidden="true" d="M0,0h0v123h0Z"/><g><g class="mark-rect role-mark marks" role="graphics-object" aria-roledescription="rect mark container"><path aria-label="value: 77.3691k; label: 77,369.11" role="graphics-symbol" aria-roledescription="bar" d="M0,0h657.637435v123h-657.637435Z" fill="#4c6ef5"/></g></g><path class="foreground" aria-hidden="true" d="" display="none"/></g></g></g><path class="foreground" aria-hidden="true" d="" display="none"/></g><g transform="translate(0,280.16666666666663)"><path class="background" aria-hidden="true" d="M0,0L202.86192499999999,0C204.51767007348198,0,205.86192499999999,1.344254926518,205.86192499999999,3L205.86192499999999,120C205.86192499999999,121.655745073482,204.51767007348198,123,202.86192499999999,123L0,123C0,123,0,123,0,123L0,0C0,0,0,0,0,0Z"/><g clip-path="url(#clip24)"><g class="mark-group role-scope" role="graphics-object" aria-roledescription="group mark container"><g transform="translate(0,0)"><path class="background" aria-hidden="true" d="M0,0h0v123h0Z"/><g><g class="mark-rect role-mark marks" role="graphics-object" aria-roledescription="rect mark container"><path aria-label="value: 24.219k; label: 24,219.05" role="graphics-symbol" aria-roledescription="bar" d="M0,0h205.86192499999999v123h-205.86192499999999Z" fill="#4c6ef5"/></g></g><path class="foreground" aria-hidden="true" d="" display="none"/></g></g></g><path class="foreground" aria-hidden="true" d="" display="none"/></g></g></g><path class="foreground" aria-hidden="true" d="" display="none"/></g></g></g><defs><clipPath id="clip22"><path d="M0,0L0.102,0C0.15829533249838798,0,0.204,0.045704667501612,0.204,0.102L0.204,122.898C0.204,122.95429533249839,0.15829533249838798,123,0.102,123L0,123C0,123,0,123,0,123L0,0C0,0,0,0,0,0Z"/></clipPath><clipPath id="clip23"><path d="M0,0L654.637435,0C656.293180073482,0,657.637435,1.344254926518,657.637435,3L657.637435,120C657.637435,121.655745073482,656.293180073482,123,654.637435,123L0,123C0,123,0,123,0,123L0,0C0,0,0,0,0,0Z"/></clipPath><clipPath id="clip24"><path d="M0,0L202.86192499999999,0C204.51767007348198,0,205.86192499999999,1.344254926518,205.86192499999999,3L205.86192499999999,120C205.86192499999999,121.655745073482,204.51767007348198,123,202.86192499999999,123L0,123C0,123,0,123,0,123L0,0C0,0,0,0,0,0Z"/></clipPath></defs></svg>