<svg xmlns="http://www.w3.org/2000/svg" xmlns:xlink="http://www.w3.org/1999/xlink" version="1.1" class="marks" width="721" height="452" viewBox="0 0 721 452"><g fill="none" stroke-miterlimit="10" transform="translate(35,5)"><g class="mark-group role-frame root" role="graphics-object" aria-roledescription="group mark container"><g transform="translate(0,0)"><path class="background" aria-hidden="true" d="M0,0h680v410h-680Z"/><g><g class="mark-group role-axis" role="graphics-symbol" aria-roledescription="axis" aria-label="X-axis titled '%' for a linear scale with values from 0 to 9"><g transform="translate(0.5,410.5)"><path class="background" aria-hidden="true" d="M0,0h0v0h0Z" pointer-events="none"/><g><g class="mark-rule role-axis-tick" pointer-events="none"><line transform="translate(0,0)" x2="0" y2="5" stroke="#888" stroke-width="1" opacity="1"/><line transform="translate(38,0)" x2="0" y2="5" stroke="#888" stroke-width="1" opacity="1"/><line transform="translate(76,0)" x2="0" y2="5" stroke="#888" stroke-width="1" opacity="1"/><line transform="translate(113,0)" x2="0" y2="5" stroke="#888" stroke-width="1" opacity="1"/><line transform="translate(151,0)" x2="0" y2="5" stroke="#888" stroke-width="1" opacity="1"/><line transform="translate(189,0)" x2="0" y2="5" stroke="#888" stroke-width="1" opacity="1"/><line transform="translate(227,0)" x2="0" y2="5" stroke="#888" stroke-width="1" opacity="1"/><line transform="translate(264,0)" x2="0" y2="5" stroke="#888" stroke-width="1" opacity="1"/><line transform="translate(302,0)" x2="0" y2="5" stroke="#888" stroke-width="1" opacity="1"/><line transform="translate(340,0)" x2="0" y2="5" stroke="#888" stroke-width="1" opacity="1"/><line transform="translate(378,0)" x2="0" y2="5" stroke="#888" stroke-width="1" opacity="1"/><line transform="translate(416,0)" x2="0" y2="5" stroke="#888" stroke-width="1" opacity="1"/><line transform="translate(453,0)" x2="0" y2="5" stroke="#888" stroke-width="1" opacity="1"/><line transform="translate(491,0)" x2="0" y2="5" stroke="#888" stroke-width="1" opacity="1"/><line transform="translate(529,0)" x2="0" y2="5" stroke="#888" stroke-width="1" opacity="1"/><line transform="translate(567,0)" x2="0" y2="5" stroke="#888" stroke-width="1" opacity="1"/><line transform="translate(604,0)" x2="0" y2="5" stroke="#888" stroke-width="1" opacity="1"/><line transform="translate(642,0)" x2="0" y2="5" stroke="#888" stroke-width="1" opacity="1"/><line transform="translate(680,0)" x2="0" y2="5" stroke="#888" stroke-width="1" opacity="1"/></g><g class="mark-text role-axis-label" pointer-events="none"><text text-anchor="start" transform="translate(0,15)" font-family="sans-serif" font-size="10px" fill="#000" opacity="1">0</text><text text-anchor="middle" transform="translate(37.77777777777778,15)" font-family="sans-serif" font-size="10px" fill="#000" opacity="1">0.5</text><text text-anchor="middle" transform="translate(75.55555555555556,15)" font-family="sans-serif" font-size="10px" fill="#000" opacity="1">1</text><text text-anchor="middle" transform="translate(113.33333333333333,15)" font-family="sans-serif" font-size="10px" fill="#000" opacity="1">1.5</text><text text-anchor="middle" transform="translate(151.11111111111111,15)" font-family="sans-serif" font-size="10px" fill="#000" opacity="1">2</text><text text-anchor="middle" transform="translate(188.88888888888889,15)" font-family="sans-serif" font-size="10px" fill="#000" opacity="1">2.5</text><text text-anchor="middle" transform="translate(226.66666666666666,15)" font-family="sans-serif" font-size="10px" fill="#000" opacity="1">3</text><text text-anchor="middle" transform="translate(264.44444444444446,15)" font-family="sans-serif" font-size="10px" fill="#000" opacity="1">3.5</text><text text-anchor="middle" transform="translate(302.22222222222223,15)" font-family="sans-serif" font-size="10px" fill="#000" opacity="1">4</text><text text-anchor="middle" transform="translate(340,15)" font-family="sans-serif" font-size="10px" fill="#000" opacity="1">4.5</text><text text-anchor="middle" transform="translate(377.77777777777777,15)" font-family="sans-serif" font-size="10px" fill="#000" opacity="1">5</text><text text-anchor="middle" transform="translate(415.5555555555556,15)" font-family="sans-serif" font-size="10px" fill="#000" opacity="1">5.5</text><text text-anchor="middle" transform="translate(453.3333333333333,15)" font-family="sans-serif" font-size="10px" fill="#000" opacity="1">6</text><text text-anchor="middle" transform="translate(491.1111111111111,15)" font-family="sans-serif" font-size="10px" fill="#000" opacity="1">6.5</text><text text-anchor="middle" transform="translate(528.8888888888889,15)" font-family="sans-serif" font-size="10px" fill="#000" opacity="1">7</text><text text-anchor="middle" transform="translate(566.6666666666667,15)" font-family="sans-serif" font-size="10px" fill="#000" opacity="1">7.5</text><text text-anchor="middle" transform="translate(604.4444444444445,15)" font-family="sans-serif" font-size="10px" fill="#000" opacity="1">8</text><text text-anchor="middle" transform="translate(642.2222222222222,15)" font-family="sans-serif" font-size="10px" fill="#000" opacity="1">8.5</text><text text-anchor="end" transform="translate(680,15)" font-family="sans-serif" font-size="10px" fill="#000" opacity="1">9</text></g><g class="mark-rule role-axis-domain" pointer-events="none"><line transform="translate(0,0)" x2="680" y2="0" stroke="#888" stroke-width="1" opacity="1"/></g><g class="mark-text role-axis-title" pointer-events="none"><text text-anchor="middle" transform="translate(340,30)" font-family="sans-serif" font-size="11px" font-weight="bold" fill="#000" opacity="1">%</text></g></g><path class="foreground" aria-hidden="true" d="" pointer-events="none" display="none"/></g></g><g class="mark-group role-axis" role="graphics-symbol" aria-roledescription="axis" aria-label="Y-axis for a discrete scale with 4 values: 3.6%, 3%, 8.6%, 4%"><g transform="translate(0.5,0.5)"><path class="background" aria-hidden="true" d="M0,0h0v0h0Z" pointer-events="none"/><g><g class="mark-rule role-axis-tick" pointer-events="none"><line transform="translate(0,51)" x2="-5" y2="0" stroke="#888" stroke-width="1" opacity="1"/><line transform="translate(0,153)" x2="-5" y2="0" stroke="#888" stroke-width="1" opacity="1"/><line transform="translate(0,256)" x2="-5" y2="0" stroke="#888" stroke-width="1" opacity="1"/><line transform="translate(0,358)" x2="-5" y2="0" stroke="#888" stroke-width="1" opacity="1"/></g><g class="mark-text role-axis-label" pointer-events="none"><text text-anchor="end" transform="translate(-7,53.75)" font-family="sans-serif" font-size="10px" fill="#000" opacity="1">3.6%</text><text text-anchor="end" transform="translate(-7,156.25)" font-family="sans-serif" font-size="10px" fill="#000" opacity="1">3%</text><text text-anchor="end" transform="translate(-7,258.75)" font-family="sans-serif" font-size="10px" fill="#000" opacity="1">8.6%</text><text text-anchor="end" transform="translate(-7,361.25)" font-family="sans-serif" font-size="10px" fill="#000" opacity="1">4%</text></g><g class="mark-rule role-axis-domain" pointer-events="none"><line transform="translate(0,0)" x2="0" y2="410" stroke="#888" stroke-width="1" opacity="1"/></g></g><path class="foreground" aria-hidden="true" d="" pointer-events="none" display="none"/></g></g><g class="mark-group role-scope" role="graphics-object" aria-roledescription="group mark container"><g transform="translate(0,5.125)"><path class="background" aria-hidden="true" d="M0,0L269,0C270.655745073482,0,272,1.344254926518,272,3L272,89.25C272,90.905745073482,270.655745073482,92.25,269,92.25L0,92.25C0,92.25,0,92.25,0,92.25L0,0C0,0,0,0,0,0Z"/><g clip-path="url(#clip1)"><g class="mark-group role-scope" role="graphics-object" aria-roledescription="group mark container"><g transform="translate(0,0)"><path class="background" aria-hidden="true" d="M0,0h0v92.25h0Z"/><g><g class="mark-rect role-mark marks" role="graphics-object" aria-roledescription="rect mark container"><path aria-label="value: 3.6; label: 3.6%" role="graphics-symbol" aria-roledescription="bar" d="M0,0h272v92.25h-272Z" fill="#4c6ef5"/></g></g><path class="foreground" aria-hidden="true" d="" display="none"/></g></g></g><path class="foreground" aria-hidden="true" d="" display="none"/></g><g transform="translate(0,107.625)"><path class="background" aria-hidden="true" d="M0,0L223.66666666666666,0C225.32241174014865,0,226.66666666666666,1.344254926518,226.66666666666666,3L226.66666666666666,89.25C226.66666666666666,90.905745073482,225.32241174014865,92.25,223.66666666666666,92.25L0,92.25C0,92.25,0,92.25,0,92.25L0,0C0,0,0,0,0,0Z"/><g clip-path="url(#clip2)"><g class="mark-group role-scope" role="graphics-object" aria-roledescription="group mark container"><g transform="translate(0,0)"><path class="background" aria-hidden="true" d="M0,0h0v92.25h0Z"/><g><g class="mark-rect role-mark marks" role="graphics-object" aria-roledescription="rect mark container"><path aria-label="value: 3; label: 3%" role="graphics-symbol" aria-roledescription="bar" d="M0,0h226.66666666666666v92.25h-226.66666666666666Z" fill="#4c6ef5"/></g></g><path class="foreground" aria-hidden="true" d="" display="none"/></g></g></g><path class="foreground" aria-hidden="true" d="" display="none"/></g><g transform="translate(0,210.125)"><path class="background" aria-hidden="true" d="M0,0L646.7777777777777,0C648.4335228512597,0,649.7777777777777,1.344254926518,649.7777777777777,3L649.7777777777777,89.25C649.7777777777777,90.905745073482,648.4335228512597,92.25,646.7777777777777,92.25L0,92.25C0,92.25,0,92.25,0,92.25L0,0C0,0,0,0,0,0Z"/><g clip-path="url(#clip3)"><g class="mark-group role-scope" role="graphics-object" aria-roledescription="group mark container"><g transform="translate(0,0)"><path class="background" aria-hidden="true" d="M0,0h0v92.25h0Z"/><g><g class="mark-rect role-mark marks" role="graphics-object" aria-roledescription="rect mark container"><path aria-label="value: 8.6; label: 8.6%" role="graphics-symbol" aria-roledescription="bar" d="M0,0h649.7777777777777v92.25h-649.7777777777777Z" fill="#4c6ef5"/></g></g><path class="foreground" aria-hidden="true" d="" display="none"/></g></g></g><path class="foreground" aria-hidden="true" d="" display="none"/></g><g transform="translate(0,312.625)"><path class="background" aria-hidden="true" d="M0,0L299.22222222222223,0C300.87796729570425,0,302.22222222222223,1.344254926518,302.22222222222223,3L302.22222222222223,89.25C302.22222222222223,90.905745073482,300.87796729570425,92.25,299.22222222222223,92.25L0,92.25C0,92.25,0,92.25,0,92.25L0,0C0,0,0,0,0,0Z"/><g clip-path="url(#clip4)"><g class="mark-group role-scope" role="graphics-object" aria-roledescription="group mark container"><g transform="translate(0,0)"><path class="background" aria-hidden="true" d="M0,0h0v92.25h0Z"/><g><g class="mark-rect role-mark marks" role="graphics-object" aria-roledescription="rect mark container"><path aria-label="value: 4; label: 4%" role="graphics-symbol" aria-roledescription="bar" d="M0,0h302.22222222222223v92.25h-302.22222222222223Z" fill="#4c6ef5"/></g></g><path class="foreground" aria-hidden="true" d="" display="none"/></g></g></g><path class="foreground" aria-hidden="true" d="" display="none"/></g></g></g><path class="foreground" aria-hidden="true" d="" display="none"/></g></g></g><defs><clipPath id="clip1"><path d="M0,0L269,0C270.655745073482,0,272,1.344254926518,272,3L272,89.25C272,90.905745073482,270.655745073482,92.25,269,92.25L0,92.25C0,92.25,0,92.25,0,92.25L0,0C0,0,0,0,0,0Z"/></clipPath><clipPath id="clip2"><path d="M0,0L223.66666666666666,0C225.32241174014865,0,226.66666666666666,1.344254926518,226.66666666666666,3L226.66666666666666,89.25C226.66666666666666,90.905745073482,225.32241174014865,92.25,223.66666666666666,92.25L0,92.25C0,92.25,0,92.25,0,92.25L0,0C0,0,0,0,0,0Z"/></clipPath><clipPath id="clip3"><path d="M0,0L646.7777777777777,0C648.4335228512597,0,649.7777777777777,1.344254926518,649.7777777777777,3L649.7777777777777,89.25C649.7777777777777,90.905745073482,648.4335228512597,92.25,646.7777777777777,92.25L0,92.25C0,92.25,0,92.25,0,92.25L0,0C0,0,0,0,0,0Z"/></clipPath><clipPath id="clip4"><path d="M0,0L299.22222222222223,0C300.87796729570425,0,302.22222222222223,1.344254926518,302.22222222222223,3L302.22222222222223,89.25C302.22222222222223,90.905745073482,300.87796729570425,92.25,299.22222222222223,92.25L0,92.25C0,92.25,0,92.25,0,92.25L0,0C0,0,0,0,0,0Z"/></clipPath></defs></svg>